<svg width="720" height="720" xmlns="http://www.w3.org/2000/svg" xmlns:xlink="http://www.w3.org/1999/xlink" overflow="hidden"><defs><clipPath id="clip0"><rect x="-59" y="0" width="720" height="720"/></clipPath></defs><g clip-path="url(#clip0)" transform="translate(59 0)"><path d="M499.557 196.523 446.471 223.066 414.378 223.8C383.727 225.832 367.801 260.983 385.744 285.111 375.98 300.556 370.642 318.587 370.622 337.314 370.622 338.305 371.34 339.208 372.325 339.306 373.459 339.419 374.414 338.53 374.414 337.419 374.414 312.548 384.169 288.946 401.432 271.41 427.051 280.891 468.772 274.915 488.189 253.406 504.612 235.212 499.625 196.967 499.567 196.522 499.566 196.517 499.561 196.521 499.557 196.523Z" fill="#E8E8E8"/><path d="M372.823 464.953C372.821 464.953 372.818 464.953 372.816 464.953 371.768 464.949 370.922 464.097 370.926 463.05L371.315 364.444C371.319 363.399 372.168 362.555 373.211 362.555 373.213 362.555 373.216 362.555 373.218 362.555 374.265 362.56 375.111 363.412 375.107 364.459L374.719 463.064C374.715 464.11 373.866 464.953 372.823 464.953Z" fill="#D1D1D1"/><path d="M325.373 212.926C341.838 191.596 327.757 160.055 300.458 158.245L272.103 157.597 225.2 134.146C225.195 134.143 225.191 134.141 225.19 134.146 225.132 134.59 220.743 168.34 235.243 184.404 252.228 203.22 288.524 208.574 311.211 200.549 327.187 217.817 336.181 240.486 336.209 264.33 336.211 265.324 336.92 266.229 337.908 266.329 339.044 266.443 340.002 265.555 340.002 264.443 340.002 245.996 334.84 228.223 325.373 212.926Z" fill="#D1D1D1"/><path d="M347.674 464.953C346.627 464.953 345.778 464.105 345.778 463.057L345.778 398.584C345.778 397.537 346.627 396.689 347.674 396.689 348.721 396.689 349.57 397.537 349.57 398.584L349.57 463.057C349.571 464.105 348.722 464.953 347.674 464.953Z" fill="#D1D1D1"/><path d="M347.674 400.481C346.627 400.481 345.778 399.632 345.778 398.585L345.778 370.664C345.778 369.617 346.627 368.768 347.674 368.768 348.721 368.768 349.57 369.617 349.57 370.664L349.57 398.585C349.571 399.632 348.722 400.481 347.674 400.481Z" fill="#B5B5B5"/><path d="M325.862 461.161 322.069 461.161 322.069 400.954C322.069 376.714 319.26 352.456 313.719 328.858L317.411 327.991C323.018 351.874 325.862 376.422 325.862 400.954L325.862 461.161Z" fill="#D1D1D1"/><path d="M315.564 330.32C314.704 330.32 313.925 329.731 313.72 328.857 309.016 308.821 302.312 289.161 293.796 270.424L297.248 268.855C305.867 287.817 312.651 307.713 317.411 327.99 317.651 329.01 317.019 330.03 315.999 330.27 315.854 330.304 315.707 330.32 315.564 330.32Z" fill="#B5B5B5"/><path d="M286.169 252.004 278.805 252.004C254.795 254.787 232.032 264.03 212.888 278.824L201.417 287.687C201.144 287.898 200.822 288 200.502 288 199.969 288 199.443 287.718 199.164 287.184 198.823 286.531 199.059 285.719 199.642 285.268L211.053 276.45C228.321 263.106 248.469 254.177 269.831 250.3L269.831 250.3 259.006 242.362C243.697 231.135 223.004 230.672 207.208 241.203 207.208 241.203 160.171 265.845 163.955 313.822 163.955 313.827 163.961 313.83 163.965 313.828L178.488 307.125C190.989 301.355 204.555 298.249 218.322 298.005L339.135 298.376C332.462 272.59 312.803 252.004 286.169 252.004Z" fill="#D1D1D1"/><path d="M357.156 464.953C357.153 464.953 357.15 464.953 357.148 464.953 356.101 464.949 355.255 464.097 355.259 463.05L355.647 364.444C355.652 363.399 356.5 362.555 357.543 362.555 357.545 362.555 357.549 362.555 357.551 362.555 358.598 362.56 359.444 363.412 359.44 364.459L359.051 463.064C359.047 464.11 358.199 464.953 357.156 464.953Z" fill="#D1D1D1"/><path d="M422.678 113.068 401.35 113.75C377.914 115.304 376.613 138.46 379.841 159.205L371.06 180.867C363.113 200.469 358.179 221.096 356.397 242.176 356.395 242.224 356.393 242.272 356.391 242.32L355.646 324.632C355.637 325.676 356.481 326.528 357.526 326.528L357.543 326.528C358.582 326.528 359.43 325.69 359.439 324.65L360.182 242.426C361.937 221.75 366.779 201.519 374.573 182.292L384.297 158.304 415.131 148.787C440.741 140.883 459.969 119.594 465.234 93.3165 465.236 93.309 465.227 93.3045 465.221 93.3098 454.322 105.411 438.958 112.546 422.678 113.068Z" fill="#D1D1D1"/><path d="M433.13 324.091C418.472 314.318 399.269 314.748 385.062 325.166L376.088 331.747C386.628 333.082 396.956 335.712 406.941 339.629 407.621 339.896 408.073 340.604 407.934 341.323 407.789 342.076 407.145 342.552 406.457 342.552 406.275 342.552 406.09 342.519 405.91 342.448 394.27 337.874 382.152 335.089 369.772 334.115L359.856 334.115C335.139 334.115 316.897 353.218 310.704 377.146L328.713 377.091 328.713 461.053C328.713 462.046 329.426 462.949 330.414 463.048 331.548 463.161 332.505 462.273 332.505 461.161L332.505 377.079 422.818 376.802C435.594 377.029 448.182 379.911 459.783 385.265L473.259 391.485C473.264 391.487 473.27 391.484 473.27 391.479 476.781 346.957 433.13 324.091 433.13 324.091Z" fill="#D1D1D1"/><path d="M314.195 583.693 377.323 583.693 389.963 479.646C389.963 479.646 378.925 472.8 346 472.8 313.075 472.8 301.557 479.646 301.557 479.646L314.195 583.693Z" fill="#E8E8E8"/><path d="M297.948 449.941 301.557 479.646 389.963 479.646 393.571 449.941C393.571 449.941 384.551 444.9 345.551 444.9 306.551 444.9 297.948 449.941 297.948 449.941Z" fill="#D1D1D1"/><path d="M397.385 418.541 294.133 418.541 297.948 449.941 393.57 449.941Z" fill="#E8E8E8"/><path d="M364.839 590.728C355.18 590.728 347.35 599.12 347.35 609.473L347.35 609.473C347.35 619.826 355.18 628.219 364.839 628.219L467.35 628.227 467.35 590.728 364.839 590.728Z" fill="#FFFFFF"/><path d="M357.973 609.664 357.973 609.664C357.973 600.861 365.11 593.725 373.914 593.725L467.391 593.725 467.351 586.418 282.048 586.418C269.207 586.418 258.798 596.828 258.798 609.669L258.798 609.669C258.798 622.51 269.207 632.92 282.048 632.92L467.393 632.92 467.391 625.613 373.914 625.605C365.11 625.604 357.973 618.468 357.973 609.664Z" fill="#C6C6C6"/><path d="M376.673 600.178 428.011 600.178 428.011 601.506 376.673 601.506Z" fill="#EFEFEF"/><path d="M376.673 604.164 428.011 604.164 428.011 605.492 376.673 605.492Z" fill="#EFEFEF"/><path d="M376.673 608.15 459.233 608.15 459.233 609.478 376.673 609.478Z" fill="#EFEFEF"/><path d="M309.216 586.417 311.873 586.417 311.873 632.919 309.216 632.919Z" fill="#FFFFFF"/><path d="M316.884 586.417 319.542 586.417 319.542 632.919 316.884 632.919Z" fill="#FFFFFF"/><path d="M335.417 544.14C325.892 544.14 318.171 552.869 318.171 563.635L318.171 563.635C318.171 574.402 325.892 583.131 335.417 583.131L436.508 583.14 436.508 544.141 335.417 544.14Z" fill="#FFFFFF"/><path d="M327.131 563.636 327.131 563.636C327.131 554.833 334.268 547.697 343.072 547.697L436.55 547.697 436.509 540.39 251.207 540.39C238.365 540.39 227.956 550.8 227.956 563.641L227.956 563.641C227.956 576.482 238.366 586.891 251.207 586.891L436.551 586.891 436.55 579.584 343.072 579.577C334.268 579.577 327.131 572.44 327.131 563.636Z" fill="#737373"/><path d="M345.831 554.34 397.169 554.34 397.169 555.668 345.831 555.668Z" fill="#EFEFEF"/><path d="M345.831 558.326 397.169 558.326 397.169 559.654 345.831 559.654Z" fill="#EFEFEF"/><path d="M345.831 562.312 428.392 562.312 428.392 563.64 345.831 563.64Z" fill="#EFEFEF"/><path d="M278.374 540.389 281.031 540.389 281.031 586.891 278.374 586.891Z" fill="#505050"/><path d="M286.043 540.389 288.7 540.389 288.7 586.891 286.043 586.891Z" fill="#505050"/><path d="M508.48 421.815 508.48 426.094 501.09 426.094 501.09 428.897 508.48 428.897 508.48 433.177 514.087 433.177 514.087 421.815Z" fill="#505050"/><path d="M508.48 403.127 508.48 407.331 501.09 407.331 501.09 410.135 508.48 410.135 508.48 414.488 514.087 414.488 514.087 403.127Z" fill="#505050"/><path d="M508.48 384.437 508.48 388.643 501.09 388.643 501.09 391.445 508.48 391.445 508.48 395.799 514.087 395.799 514.087 384.437Z" fill="#505050"/><path d="M425.114 631.5C424.646 631.86 424.376 632.411 424.385 633L536.499 633C536.513 632.411 536.238 631.86 535.77 631.5 512.437 613.69 497.739 587.698 495.365 558.398L488.336 477.009C488.064 473.854 487.894 470.691 487.828 467.525L487.088 432.094 502.874 432.094 502.874 422.75 486.893 422.75 486.698 413.405 502.874 413.405 502.874 404.061 486.503 404.061 486.308 394.717 502.875 394.717 502.875 385.372 486.113 385.372 484.572 311.588C484.335 300.254 485.459 288.932 487.918 277.865L487.918 277.865 472.967 277.865 472.967 277.865C475.426 288.932 476.549 300.254 476.313 311.588L476.096 321.97C470.634 313.993 461.463 308.747 451.087 308.747 434.383 308.747 420.793 322.337 420.793 339.041L420.793 385.372 414.102 385.372 414.102 394.716 420.793 394.716 420.793 404.06 414.102 404.06 414.102 413.404 420.793 413.404 420.793 422.749 414.102 422.749 414.102 432.093 420.793 432.093 420.793 490.129C420.793 506.833 434.383 520.423 451.087 520.423 457.932 520.423 464.252 518.138 469.33 514.295L465.523 558.398C463.146 587.698 448.451 613.69 425.114 631.5ZM472.037 339.041 472.037 385.372 446.807 385.372 446.807 318.533C448.189 318.245 449.621 318.091 451.087 318.091 462.639 318.091 472.037 327.49 472.037 339.041ZM430.137 339.041C430.137 332.689 432.983 326.992 437.463 323.147L437.463 385.372 430.137 385.372 430.137 339.041ZM430.137 394.716 472.037 394.716 472.037 404.06 430.137 404.06 430.137 394.716ZM430.137 413.405 472.037 413.405 472.037 422.75 430.137 422.75 430.137 413.405ZM430.137 490.129 430.137 432.094 437.463 432.094 437.463 506.023C432.983 502.179 430.137 496.482 430.137 490.129ZM451.087 511.079C449.62 511.079 448.189 510.926 446.807 510.638L446.807 463.147C448.259 464.183 450.03 464.799 451.947 464.799 456.842 464.799 460.823 460.816 460.823 455.922 460.823 451.027 456.841 447.045 451.947 447.045 450.03 447.045 448.26 447.661 446.807 448.697L446.807 432.094 472.037 432.094 472.037 482.939 470.806 497.201C467.898 505.283 460.158 511.079 451.087 511.079ZM446.807 455.922C446.807 453.088 449.112 450.782 451.947 450.782 454.781 450.782 457.086 453.088 457.086 455.922 457.086 458.756 454.781 461.062 451.947 461.062 449.112 461.062 446.807 458.756 446.807 455.922Z" fill="#FF0077"/><path d="M469.246 274.172 491.661 274.172 491.661 274.172C491.661 277.243 489.17 279.733 486.1 279.733L474.807 279.733C471.735 279.733 469.246 277.243 469.246 274.172L469.246 274.172Z" fill="#505050"/><path d="M503.809 614.876C503.258 614.876 502.729 614.573 502.466 614.047 495.171 599.458 489.892 583.312 486.776 566.057 486.629 565.242 487.169 564.462 487.985 564.315 488.804 564.161 489.581 564.709 489.727 565.524 492.794 582.498 497.982 598.372 505.149 612.706 505.52 613.447 505.22 614.348 504.478 614.719 504.263 614.826 504.034 614.876 503.809 614.876Z" fill="#FFFFFF"/><path d="M487.136 560.483C486.367 560.483 485.712 559.896 485.643 559.115 484.016 540.683 483.148 522.8 483.065 505.964 483.06 505.135 483.729 504.461 484.557 504.456 484.559 504.456 484.562 504.456 484.565 504.456 485.391 504.456 486.06 505.123 486.065 505.949 486.147 522.703 487.012 540.502 488.632 558.851 488.706 559.677 488.095 560.404 487.27 560.477 487.224 560.481 487.179 560.483 487.136 560.483Z" fill="#FFFFFF"/><path d="M152.09 113.349 152.09 107.747 146.488 107.747 146.488 121.753 152.09 121.753 152.09 116.15 174.5 116.15 174.5 113.349Z" fill="#737373"/><path d="M213.718 107.747 213.718 113.349 191.309 113.349 191.309 116.15 213.718 116.15 213.718 121.753 219.32 121.753 219.32 107.747Z" fill="#737373"/><path d="M152.09 89.5387 152.09 83.9362 146.488 83.9362 146.488 97.9425 152.09 97.9425 152.09 92.34 174.5 92.34 174.5 89.5387Z" fill="#737373"/><path d="M213.718 83.9362 213.718 89.5387 191.309 89.5387 191.309 92.34 213.718 92.34 213.718 97.9425 219.32 97.9425 219.32 83.9362Z" fill="#737373"/><path d="M152.09 65.7278 152.09 60.1253 146.487 60.1253 146.488 74.1315 152.09 74.1315 152.09 68.529 174.5 68.529 174.5 65.7278Z" fill="#737373"/><path d="M213.718 60.1253 213.718 65.7278 191.309 65.7278 191.309 68.529 213.718 68.529 213.718 74.1315 219.32 74.1315 219.32 60.1253Z" fill="#737373"/><path d="M94.813 434.413C94.813 438.829 95.2637 443.157 96.1277 447.366 101.657 474.284 96.4495 502.396 81.0392 525.15 71.149 539.755 65.5 556.646 65.5 574.645 65.5 630.069 119.06 675 185.13 675 251.198 675 304.758 630.069 304.758 574.645 304.758 556.646 299.109 539.755 289.218 525.151 273.809 502.397 268.601 474.285 274.13 447.367 274.995 443.158 275.444 438.83 275.444 434.414 275.444 392.57 235.009 358.648 185.129 358.648 135.249 358.647 94.813 392.568 94.813 434.413Z" fill="#FF0077"/><path d="M200.961 44.7188 164.853 44.7188C159.407 44.7188 155.044 49.2315 155.229 54.6743L157.692 127.356 159.255 128.919C163.635 133.299 166.096 139.24 166.096 145.434L166.096 149.766C166.096 149.766 170.349 154.85 183.05 154.85 195.749 154.85 199.711 149.766 199.711 149.766L199.711 146.699C199.711 139.768 202.79 133.194 208.115 128.757L208.115 128.757 210.585 54.6697C210.766 49.2278 206.405 44.7188 200.961 44.7188ZM173.1 123.154 173.1 123.154C170.779 123.154 168.897 121.273 168.897 118.952L168.897 60.2947C168.897 57.9743 170.778 56.0925 173.099 56.0925 175.419 56.0925 177.301 57.9735 177.301 60.2947L177.301 118.952C177.302 121.272 175.42 123.154 173.1 123.154ZM196.91 60.2947 196.91 118.952C196.91 121.272 195.029 123.154 192.708 123.154 190.388 123.154 188.506 121.273 188.506 118.952L188.506 60.2955C188.506 57.975 190.387 56.0933 192.708 56.0933L192.708 56.0933C195.029 56.0933 196.91 57.9743 196.91 60.2947Z" fill="#FF0077"/><path d="M140.885 455.102C140.885 431.932 159.735 413.083 182.904 413.083 206.073 413.083 224.923 431.932 224.923 455.102 224.923 478.27 206.073 497.12 182.904 497.12 159.735 497.12 140.885 478.271 140.885 455.102M136.683 455.102C136.683 480.629 157.377 501.323 182.904 501.323 208.431 501.323 229.125 480.629 229.125 455.102 229.125 429.574 208.431 408.88 182.904 408.88 157.377 408.88 136.683 429.574 136.683 455.102L136.683 455.102Z" fill="#737373"/><path d="M207.659 430.34C221.333 444.015 221.333 466.186 207.659 479.86 193.984 493.535 171.814 493.535 158.139 479.86 144.465 466.186 144.465 444.015 158.139 430.34 171.814 416.666 193.984 416.666 207.659 430.34Z" fill="#2F2F2F"/><path d="M140.662 611.974 140.662 590.965 224.923 590.965 224.923 611.974Z" fill="#505050"/><path d="M159.093 597.266 205.314 597.266 205.314 601.468 159.093 601.468Z" fill="#737373"/><path d="M199.712 149.765 203.913 427.089 161.895 427.089 166.097 149.765Z" fill="#505050"/><path d="M166.097 170.075 199.712 170.075 199.712 171.475 166.097 171.475Z" fill="#737373"/><path d="M166.097 212.093 199.712 212.093 199.712 213.494 166.097 213.494Z" fill="#737373"/><path d="M166.097 254.112 199.712 254.112 199.712 255.513 166.097 255.513Z" fill="#737373"/><path d="M166.097 296.131 199.712 296.131 199.712 297.532 166.097 297.532Z" fill="#737373"/><path d="M166.097 317.141 199.712 317.141 199.712 318.542 166.097 318.542Z" fill="#737373"/><path d="M166.097 359.159 199.712 359.159 199.712 360.56 166.097 360.56Z" fill="#737373"/><path d="M166.097 338.15 199.712 338.15 199.712 339.551 166.097 339.551Z" fill="#737373"/><path d="M166.097 380.168 199.712 380.168 199.712 381.569 166.097 381.569Z" fill="#737373"/><path d="M166.097 401.178 199.712 401.178 199.712 402.579 166.097 402.579Z" fill="#737373"/><path d="M195.86 606.02 195.86 121.725C195.651 121.962 195.416 122.175 195.159 122.36L195.159 606.02 190.257 606.02 190.794 149.788 192.516 123.145C192.279 123.134 192.046 123.107 191.82 123.059L190.095 149.765 189.557 606.02 184.655 606.02 185.772 149.81 190.854 122.718C190.629 122.607 190.415 122.477 190.216 122.329L185.075 149.765 183.955 606.02 179.053 606.02 180.729 149.721 175.589 122.331C175.389 122.479 175.176 122.608 174.951 122.719L180.032 149.764 178.353 606.019 173.451 606.019 175.56 149.743 173.951 123.066C173.725 123.112 173.492 123.137 173.254 123.145L174.86 149.763 172.75 606.018 167.848 606.018 170.604 122.327C170.349 122.138 170.115 121.921 169.908 121.68L167.147 606.018 163.294 606.018 163.294 606.719 199.71 606.719 199.71 606.018 195.86 606.018Z" fill="#FFFFFF"/></g></svg>