<svg width="720" height="720" xmlns="http://www.w3.org/2000/svg" xmlns:xlink="http://www.w3.org/1999/xlink" overflow="hidden"><defs><clipPath id="clip0"><rect x="612" y="0" width="720" height="720"/></clipPath></defs><g clip-path="url(#clip0)" transform="translate(-612 0)"><path d="M774 318.704 985.233 281.579 1033.21 554.536 821.973 591.661Z" fill="#E6E6E6"/><path d="M815.159 448.708 999.759 416.11 999.889 416.849 815.289 449.446Z" fill="#D2D2D2"/><path d="M815.837 452.542 1000.44 419.944 1000.57 420.683 815.967 453.28Z" fill="#D2D2D2"/><path d="M816.515 456.376 1001.11 423.778 1001.25 424.517 816.646 457.114Z" fill="#D2D2D2"/><path d="M817.193 460.21 1001.79 427.613 1001.92 428.351 817.323 460.949Z" fill="#D2D2D2"/><path d="M817.871 464.044 1002.47 431.447 1002.6 432.185 818.001 464.783Z" fill="#D2D2D2"/><path d="M819.45 472.972 1004.05 440.375 1004.18 441.114 819.58 473.711Z" fill="#D2D2D2"/><path d="M820.128 476.807 1004.73 444.209 1004.86 444.948 820.259 477.545Z" fill="#D2D2D2"/><path d="M820.806 480.641 1005.41 448.043 1005.54 448.782 820.937 481.379Z" fill="#D2D2D2"/><path d="M821.484 484.476 1006.08 451.878 1006.21 452.617 821.614 485.214Z" fill="#D2D2D2"/><path d="M822.162 488.31 1006.76 455.712 1006.89 456.451 822.292 489.048Z" fill="#D2D2D2"/><path d="M804.394 387.832 988.994 355.234 989.125 355.973 804.525 388.57Z" fill="#D2D2D2"/><path d="M805.072 391.666 989.672 359.068 989.803 359.807 805.203 392.404Z" fill="#D2D2D2"/><path d="M805.75 395.5 990.349 362.903 990.48 363.641 805.881 396.239Z" fill="#D2D2D2"/><path d="M806.429 399.335 991.028 366.738 991.158 367.476 806.559 400.073Z" fill="#D2D2D2"/><path d="M807.107 403.169 991.706 370.572 991.837 371.31 807.237 403.908Z" fill="#D2D2D2"/><path d="M808.685 412.097 993.284 379.499 993.415 380.238 808.816 412.835Z" fill="#D2D2D2"/><path d="M809.364 415.931 993.963 383.334 994.094 384.073 809.494 416.67Z" fill="#D2D2D2"/><path d="M810.041 419.765 994.641 387.168 994.771 387.907 810.172 420.504Z" fill="#D2D2D2"/><path d="M810.719 423.6 995.319 391.002 995.449 391.741 810.85 424.338Z" fill="#D2D2D2"/><path d="M811.397 427.434 995.997 394.836 996.128 395.575 811.528 428.172Z" fill="#D2D2D2"/><path d="M825.923 509.583 1010.52 476.985 1010.65 477.724 826.054 510.321Z" fill="#D2D2D2"/><path d="M826.602 513.417 1011.2 480.82 1011.33 481.558 826.733 514.155Z" fill="#D2D2D2"/><path d="M827.281 517.251 1011.88 484.654 1012.01 485.392 827.411 517.99Z" fill="#D2D2D2"/><path d="M827.958 521.086 1012.56 488.489 1012.69 489.227 828.089 521.824Z" fill="#D2D2D2"/><path d="M828.636 524.92 1013.24 492.323 1013.37 493.061 828.767 525.659Z" fill="#D2D2D2"/><path d="M830.215 533.847 1014.81 501.25 1014.94 501.989 830.345 534.586Z" fill="#D2D2D2"/><path d="M830.892 537.682 1015.49 505.085 1015.62 505.824 831.023 538.421Z" fill="#D2D2D2"/><path d="M831.571 541.517 1016.17 508.919 1016.3 509.658 831.701 542.255Z" fill="#D2D2D2"/><path d="M832.25 545.351 1016.85 512.753 1016.98 513.492 832.38 546.089Z" fill="#D2D2D2"/><path d="M832.927 549.186 1017.53 516.588 1017.66 517.327 833.058 549.924Z" fill="#D2D2D2"/><path d="M1126.41 432.931 1090.9 432.931 915.638 432.931 915.638 155.789 1126.41 155.789Z" fill="#D2D2D2"/><path d="M1132.68 423.445 1101.28 427.842C1098.99 428.002 1096.71 428.16 1094.42 428.32L918.21 428.32 918.21 151.178 1132.68 151.178 1132.68 423.445Z" fill="#F2F2F2"/><path d="M935.716 282.563 1109.71 282.563 1109.71 283.313 935.717 283.313Z" fill="#D2D2D2"/><path d="M935.716 286.457 1109.71 286.457 1109.71 287.207 935.717 287.207Z" fill="#D2D2D2"/><path d="M935.716 290.35 1109.71 290.35 1109.71 291.1 935.717 291.1Z" fill="#D2D2D2"/><path d="M935.716 294.245 1109.71 294.245 1109.71 294.995 935.717 294.995Z" fill="#D2D2D2"/><path d="M935.716 298.138 1109.71 298.138 1109.71 298.888 935.717 298.888Z" fill="#D2D2D2"/><path d="M935.716 307.204 1109.71 307.204 1109.71 307.954 935.717 307.954Z" fill="#D2D2D2"/><path d="M935.716 311.098 1109.71 311.098 1109.71 311.848 935.717 311.848Z" fill="#D2D2D2"/><path d="M935.716 314.992 1109.71 314.992 1109.71 315.742 935.717 315.742Z" fill="#D2D2D2"/><path d="M935.716 318.885 1109.71 318.885 1109.71 319.635 935.717 319.635Z" fill="#D2D2D2"/><path d="M935.716 322.779 1109.71 322.779 1109.71 323.529 935.717 323.529Z" fill="#D2D2D2"/><path d="M935.716 220.746 1109.71 220.746 1109.71 221.496 935.717 221.496Z" fill="#D2D2D2"/><path d="M935.716 224.639 1109.71 224.639 1109.71 225.389 935.717 225.389Z" fill="#D2D2D2"/><path d="M935.716 228.533 1109.71 228.533 1109.71 229.283 935.717 229.283Z" fill="#D2D2D2"/><path d="M935.716 232.427 1109.71 232.427 1109.71 233.177 935.717 233.177Z" fill="#D2D2D2"/><path d="M935.716 236.32 1109.71 236.32 1109.71 237.07 935.717 237.07Z" fill="#D2D2D2"/><path d="M935.716 245.387 1109.71 245.387 1109.71 246.137 935.717 246.137Z" fill="#D2D2D2"/><path d="M935.716 249.28 1109.71 249.28 1109.71 250.03 935.717 250.03Z" fill="#D2D2D2"/><path d="M935.716 253.174 1109.71 253.174 1109.71 253.924 935.717 253.924Z" fill="#D2D2D2"/><path d="M935.716 257.067 1109.71 257.067 1109.71 257.817 935.717 257.817Z" fill="#D2D2D2"/><path d="M935.716 260.961 1109.71 260.961 1109.71 261.711 935.717 261.711Z" fill="#D2D2D2"/><path d="M935.716 344.381 1109.71 344.381 1109.71 345.131 935.717 345.131Z" fill="#D2D2D2"/><path d="M935.716 348.275 1109.71 348.275 1109.71 349.025 935.717 349.025Z" fill="#D2D2D2"/><path d="M935.716 352.169 1109.71 352.169 1109.71 352.919 935.717 352.919Z" fill="#D2D2D2"/><path d="M935.716 356.062 1109.71 356.062 1109.71 356.812 935.717 356.812Z" fill="#D2D2D2"/><path d="M935.716 359.956 1109.71 359.956 1109.71 360.706 935.717 360.706Z" fill="#D2D2D2"/><path d="M935.716 369.022 1109.71 369.022 1109.71 369.772 935.717 369.772Z" fill="#D2D2D2"/><path d="M935.716 372.916 1109.71 372.916 1109.71 373.666 935.717 373.666Z" fill="#D2D2D2"/><path d="M935.716 376.809 1109.71 376.809 1109.71 377.559 935.717 377.559Z" fill="#D2D2D2"/><path d="M935.716 380.703 1109.71 380.703 1109.71 381.453 935.717 381.453Z" fill="#D2D2D2"/><path d="M935.716 384.596 1109.71 384.596 1109.71 385.346 935.717 385.346Z" fill="#D2D2D2"/><path d="M852.626 342.556C844.236 352.814 840.655 361.865 837.807 374.033 829.268 410.514 847.086 448.106 880.032 465.949L888.005 470.266C892.265 472.574 891.715 479.057 888.091 482.273L894.052 488.993C903.401 480.7 917.978 482.897 924.466 493.579L938.161 516.125C943.187 524.399 941.576 535.084 934.333 541.508L926.641 548.332 932.615 555.065C938.944 549.449 943.639 561.068 946.132 569.153L946.132 569.156C954.192 595.3 974.956 615.848 1001.42 622.768 1032.27 630.835 1067.22 624.268 1095.29 602.816L1108.73 590.847C1133.17 565.571 1143.75 531.795 1139.44 500.332 1135.72 473.227 1117.8 450.161 1092.8 439.043L1092.8 439.042C1085.07 435.603 1074.09 429.557 1080.42 423.941L1074.8 417.559 1067.11 424.382C1059.86 430.807 1048.71 430.783 1041.1 424.806L1020.34 408.521C1010.51 400.807 1010.07 386.072 1019.42 377.779L1013.45 371.058C1009.83 374.273 1003.33 374.046 1001.54 369.542L998.207 361.111C984.419 326.273 949.219 304.101 911.979 308.23 899.693 309.593 887.612 313.695 876.526 320.664L723.329 151.798 707.498 165.509 729.398 190.195 732.215 187.6 852.626 342.556Z" fill="#D2D2D2"/><path d="M743.865 199.37 741.874 197.126 733.383 204.691 730.404 201.333 725.916 205.315C723.437 207.514 723.21 211.306 725.41 213.785 727.609 216.264 731.401 216.491 733.88 214.292L738.368 210.311 735.374 206.936 743.865 199.37Z" fill="#2F2F2F"/><path d="M755.91 212.785 753.919 210.541 745.314 218.139 742.35 214.798 737.862 218.779C735.383 220.979 735.156 224.771 737.356 227.25 739.555 229.729 743.347 229.956 745.826 227.756L750.314 223.775 747.305 220.383 755.91 212.785Z" fill="#2F2F2F"/><path d="M786.728 183.45 786.728 183.45C784.529 180.971 780.737 180.744 778.257 182.944L773.769 186.925 776.747 190.283 768.022 198.064 770.013 200.309 778.737 192.526 781.732 195.902 786.22 191.921C788.7 189.721 788.927 185.929 786.728 183.45Z" fill="#2F2F2F"/><path d="M774.782 169.985 774.782 169.985C772.583 167.507 768.791 167.279 766.312 169.479L761.823 173.461 764.798 176.815 756.427 184.3 758.418 186.544 766.789 179.059 769.786 182.438 774.275 178.456C776.755 176.256 776.981 172.464 774.782 169.985Z" fill="#2F2F2F"/><path d="M1143.67 496.84C1139.95 469.736 1122.02 446.67 1097.03 435.551L1097.03 435.551C1089.3 432.112 1078.32 426.066 1084.65 420.451L1078.68 413.718 1070.98 420.542C1063.74 426.966 1052.94 427.292 1045.33 421.316L1024.57 405.031C1014.74 397.316 1014.3 382.582 1023.65 374.288L1017.68 367.568C1014.06 370.783 1007.56 370.556 1005.77 366.051L1002.44 357.621C988.648 322.784 953.449 300.611 916.21 304.741 899.434 306.601 883.036 313.544 869.038 325.961L868.728 326.237C854.731 338.654 845.882 354.107 842.036 370.542 833.497 407.023 851.315 444.616 884.26 462.458L892.233 466.776C896.493 469.083 895.943 475.567 892.319 478.782L898.281 485.503C907.63 477.209 922.206 479.408 928.694 490.088L942.389 512.635C947.415 520.909 945.804 531.593 938.562 538.018L930.87 544.841 936.843 551.574C943.173 545.959 947.867 557.577 950.36 565.663L950.361 565.664C958.421 591.808 979.185 612.356 1005.65 619.277 1036.57 627.361 1071.61 620.761 1099.7 599.198 1101.9 597.513 1100.5 595.622 1104.75 591.898 1109 588.173 1110.8 589.604 1112.82 587.517 1137.37 562.224 1147.99 528.367 1143.67 496.84Z" fill="#FF0077"/><path d="M970.613 413.336 943.683 437.226 719.473 170.927 732.938 158.982Z" fill="#2F2F2F"/><path d="M1015.1 522.252 1046.52 494.38 1081.34 551.715 1113.2 587.622 1099.73 599.567 1067.88 563.66Z" fill="#2F2F2F"/><path d="M726.677 192.609 722.341 196.455 700.378 171.826 704.777 167.923Z" fill="#FF0077"/><path d="M758.006 164.816 753.671 168.662 731.708 144.032 736.106 140.13Z" fill="#FF0077"/><path d="M785.276 220.831 788.936 217.584 727.219 148.014 725.203 149.803 721.262 145.361 707.569 157.508 711.509 161.951 709.244 163.96 770.962 233.53 774.643 230.264 723.382 171.47 732.818 163.098Z" fill="#FF0077"/><path d="M950.38 467.378C951.37 468.504 950.647 467.699 950.866 467.953L950.854 467.968 950.83 467.997 950.782 468.055 950.688 468.172 950.5 468.403 950.138 468.874C949.905 469.194 949.687 469.52 949.481 469.852 949.064 470.51 948.709 471.199 948.419 471.907 947.827 473.315 947.474 474.795 947.38 476.272 947.146 479.227 947.971 482.131 949.526 484.479 953.198 490.074 956.702 495.769 960.105 501.524 963.508 507.28 966.812 513.094 969.991 518.982 971.854 522.361 972.397 526.379 971.598 530.018 971.182 531.835 970.482 533.574 969.47 535.094 968.967 535.853 968.407 536.569 967.784 537.217 967.469 537.539 967.141 537.845 966.806 538.138L966.292 538.562 966.023 538.76 965.89 538.859 965.823 538.908 965.79 538.932 965.773 538.944C965.546 538.698 966.259 539.512 965.259 538.396 964.268 537.27 964.991 538.076 964.773 537.82L964.785 537.805 964.809 537.777 964.857 537.719 964.953 537.604 965.144 537.376 965.511 536.909C965.746 536.591 965.97 536.269 966.178 535.938 966.597 535.279 966.964 534.596 967.261 533.889 967.851 532.474 968.237 530.999 968.333 529.512 968.576 526.541 967.766 523.609 966.183 521.25 962.517 515.651 958.975 509.979 955.533 504.247 952.09 498.516 948.748 492.724 945.574 486.832 944.641 485.141 944.026 483.277 943.751 481.387 943.493 479.492 943.571 477.573 943.965 475.742 944.382 473.914 945.115 472.18 946.125 470.654 946.635 469.895 947.208 469.186 947.832 468.536 948.15 468.216 948.482 467.913 948.82 467.623L949.34 467.203 949.611 467.008 949.746 466.911 949.813 466.863 949.847 466.839 949.864 466.827C950.093 467.075 949.38 466.261 950.38 467.378Z" fill="#2F2F2F"/><path d="M999.752 423.578C998.762 422.453 999.485 423.258 999.268 423.002L999.282 422.987 999.31 422.957 999.366 422.896 999.479 422.773 999.704 422.527 1000.18 422.061C1000.51 421.759 1000.85 421.465 1001.21 421.188 1001.93 420.646 1002.7 420.161 1003.51 419.746 1005.15 418.925 1006.96 418.404 1008.82 418.207 1010.69 418.035 1012.6 418.186 1014.45 418.668 1016.3 419.166 1018.07 419.998 1019.64 421.127 1025.11 424.981 1030.47 428.989 1035.75 433.09 1041.03 437.191 1046.24 441.384 1051.36 445.691 1053.51 447.544 1056.32 448.698 1059.3 448.81 1060.79 448.892 1062.3 448.684 1063.78 448.268 1064.51 448.057 1065.24 447.775 1065.94 447.437 1066.29 447.27 1066.64 447.086 1066.98 446.89L1067.49 446.582 1067.74 446.419 1067.87 446.337 1067.93 446.297 1067.96 446.276 1067.98 446.265C1068.2 446.512 1067.49 445.698 1068.49 446.816 1069.48 447.942 1068.76 447.137 1068.97 447.391L1068.96 447.407 1068.93 447.437 1068.88 447.497 1068.76 447.618 1068.53 447.861 1068.05 448.322C1067.72 448.62 1067.38 448.908 1067.02 449.182 1066.3 449.723 1065.53 450.195 1064.71 450.604 1063.08 451.427 1061.27 451.916 1059.42 452.111 1055.71 452.47 1051.78 451.453 1048.65 449.201 1043.18 445.341 1037.8 441.368 1032.5 437.304 1027.19 433.24 1021.95 429.082 1016.83 424.769 1014.69 422.946 1011.9 421.781 1008.94 421.66 1007.46 421.576 1005.95 421.751 1004.48 422.171 1003.75 422.375 1003.02 422.645 1002.32 422.981 1001.96 423.145 1001.61 423.323 1001.27 423.516L1000.76 423.819 1000.5 423.979 1000.38 424.059 1000.31 424.099 1000.28 424.119 1000.27 424.129C1000.04 423.883 1000.75 424.697 999.752 423.578Z" fill="#2F2F2F"/><path d="M984.731 497.087 1025.13 461.253 1029.11 465.741 988.713 501.576Z" fill="#FFFFFF"/><path d="M1026.22 519.928 744.186 193.133 743.048 194.111 1025.1 520.924Z" fill="#FFFFFF"/><path d="M753.147 185.152 752.041 186.165 1043.21 505.338 1044.33 504.343Z" fill="#FFFFFF"/><path d="M747.551 190.149 748.673 189.154 1035.35 512.333 1034.23 513.328Z" fill="#FFFFFF"/><path d="M1240.91 462.296 1218.52 442.328 843.502 107.861 829.789 95.721C829.786 95.718 829.781 95.7188 829.778 95.7217 825.111 100.951 817.073 102.223 810.353 100.405L805.712 96.2663C805.154 95.769 804.298 95.6895 803.717 96.1605 802.978 96.7605 802.975 97.8457 803.656 98.4525L835 126.409C835.31 126.685 835.701 126.809 836.084 126.787 836.504 126.763 836.914 126.563 837.194 126.196 837.679 125.559 837.523 124.639 836.926 124.107L832.519 120.177 832.589 120.098C836.411 115.813 842.981 115.438 847.265 119.259L1193.24 427.826C1195.1 429.48 1195.26 432.324 1193.61 434.179 1191.95 436.034 1189.11 436.195 1187.25 434.542L1169.35 418.578 1165.36 423.056 1189.34 444.443C1196.36 450.709 1206.32 451.043 1213.9 446.248L1236.91 466.774C1237.53 467.325 1238.32 467.574 1239.08 467.531 1239.85 467.487 1240.6 467.15 1241.15 466.532 1242.25 465.295 1242.14 463.399 1240.91 462.296Z" fill="#D2D2D2"/><path d="M1165.71 418.34C1165.35 418.34 1165 418.215 1164.71 417.959L842.309 130.418C841.69 129.867 841.636 128.918 842.188 128.3 842.739 127.682 843.688 127.628 844.306 128.179L1166.71 415.721C1167.33 416.272 1167.38 417.221 1166.83 417.839 1166.53 418.171 1166.12 418.34 1165.71 418.34Z" fill="#D2D2D2"/><path d="M1242.62 461.315 1181.05 406.402C1181.05 406.402 1179.32 406.469 1178.05 407.734 1176.79 409 1177.06 410.88 1177.06 410.88L1194.95 426.844C1196.81 428.498 1196.97 431.342 1195.32 433.197 1193.66 435.052 1190.82 435.215 1188.96 433.56L1171.06 417.596 1167.07 422.074 1191.05 443.461C1198.08 449.727 1208.03 450.061 1215.61 445.265L1238.63 465.792C1239.2 466.302 1239.91 466.553 1240.62 466.553 1241.45 466.553 1242.27 466.215 1242.86 465.55 1243.96 464.314 1243.86 462.418 1242.62 461.315Z" fill="#2F2F2F"/><path d="M830.666 93.9053C830.662 93.9023 830.658 93.903 830.655 93.906 825.988 99.135 818.784 101.242 812.064 99.4238L807.424 95.2852C806.866 94.788 806.009 94.7077 805.429 95.178 804.689 95.7773 804.687 96.8633 805.367 97.47L836.712 125.425C836.998 125.681 837.354 125.806 837.71 125.806 838.222 125.806 838.732 125.546 839.022 125.036 839.377 124.415 839.195 123.62 838.661 123.144L834.23 119.192 834.301 119.113C838.122 114.829 844.692 114.454 848.977 118.275L1151.31 387.916C1151.31 387.916 1152.97 388.121 1154.33 386.602 1155.69 385.096 1155.3 383.438 1155.3 383.438L830.666 93.9053Z" fill="#2F2F2F"/><path d="M1151.3 387.916 1155.3 383.438 1181.04 406.401 1177.05 410.879Z" fill="#737373"/><path d="M863.665 220.828C862.338 220.828 861.011 220.323 860.002 219.313 859.023 218.335 858.484 217.033 858.484 215.65 858.484 214.268 859.023 212.966 860.002 211.988L884.276 187.716C887.159 184.833 891.85 184.833 894.734 187.716 896.13 189.112 896.9 190.97 896.9 192.944 896.9 194.92 896.131 196.776 894.734 198.173L875.157 217.747 874.096 216.686 893.673 197.112C894.786 195.999 895.4 194.518 895.4 192.944 895.4 191.37 894.787 189.889 893.673 188.776 892.559 187.663 891.079 187.05 889.505 187.05 887.93 187.05 886.45 187.663 885.337 188.776L861.062 213.049C860.367 213.744 859.984 214.668 859.984 215.65 859.984 216.634 860.367 217.557 861.062 218.252 862.497 219.687 864.831 219.687 866.266 218.252L888.983 195.537C889.549 194.971 889.549 194.05 888.983 193.483 888.418 192.918 887.497 192.918 886.93 193.483L868.91 211.501 867.85 210.44 885.869 192.423C887.021 191.272 888.894 191.272 890.044 192.423 891.195 193.574 891.195 195.446 890.044 196.598L867.326 219.313C866.317 220.323 864.991 220.828 863.665 220.828Z" fill="#D2D2D2"/><path d="M872.994 273.714C871.101 273.714 869.207 272.993 867.766 271.552L848.192 251.975 849.252 250.915 868.826 270.491C869.939 271.604 871.42 272.218 872.994 272.218 874.568 272.218 876.049 271.605 877.162 270.491 879.46 268.193 879.461 264.454 877.162 262.155L852.89 237.881C852.195 237.185 851.271 236.803 850.288 236.803 849.306 236.803 848.382 237.185 847.687 237.881 846.252 239.315 846.252 241.65 847.687 243.084L870.402 265.802C870.969 266.368 871.889 266.368 872.456 265.802 873.022 265.235 873.022 264.314 872.456 263.748L854.438 245.729 855.499 244.668 873.516 262.688C874.667 263.839 874.667 265.712 873.516 266.862 872.365 268.013 870.492 268.014 869.341 266.862L846.626 244.145C844.607 242.126 844.607 238.839 846.626 236.819 847.604 235.841 848.906 235.302 850.288 235.302 851.672 235.302 852.973 235.841 853.951 236.819L878.223 261.094C881.106 263.977 881.105 268.668 878.222 271.551 876.781 272.993 874.887 273.714 872.994 273.714Z" fill="#D2D2D2"/><path d="M1149.65 337.674 1151.19 336.889 1087.94 212.496 1075.43 196.809 1074.9 197.08 1072.85 192.992 1071.82 193.518 1073.86 197.605 1073.37 197.854 1078.68 217.199 1141.94 341.594 1143.48 340.81 1150.55 354.701 1156.72 351.565Z" fill="#D2D2D2"/><path d="M1158.63 345.674 1152.47 348.809 1144.77 333.61 1150.94 330.473Z" fill="#737373"/><path d="M1153.11 330.998 1143.86 335.702 1138.37 324.911C1138.37 324.911 1139.32 323.152 1138.3 321.022 1137.28 318.891 1135.25 318.763 1135.25 318.763L1080.6 211.309C1080.6 211.309 1081.55 208.598 1084.3 207.247 1087.05 205.897 1089.85 206.605 1089.85 206.605L1144.5 314.062C1144.5 314.062 1143.72 315.897 1144.73 317.897 1145.73 319.897 1147.61 320.191 1147.61 320.191L1153.11 330.998Z" fill="#FF0077"/><path d="M1073.75 187.616 1074.79 187.09 1077.74 192.905 1076.71 193.43Z" fill="#505050"/><path d="M1075.29 191.963 1080.6 211.3C1080.6 211.305 1080.61 211.307 1080.61 211.304L1089.85 206.608C1089.85 206.606 1089.85 206.601 1089.85 206.597L1077.35 190.918 1075.29 191.963Z" fill="#737373"/><path d="M1152.26 317.885 1130.29 274.68C1128.59 275.546 1127.91 277.628 1128.78 279.331L1147.61 316.369 1146.07 317.152 1144.49 314.044 1135.23 318.751 1138.37 324.919 1152.26 317.885Z" fill="#737373"/></g></svg>