<svg id="Layer_1" data-name="Layer 1" xmlns="http://www.w3.org/2000/svg" xmlns:xlink="http://www.w3.org/1999/xlink" viewBox="0 0 612 401.37"><defs><style>.cls-1,.cls-14,.cls-9{fill:none;}.cls-2,.cls-5{fill:#de2d63;}.cls-2{opacity:0.67;isolation:isolate;}.cls-3{fill:#6d3113;}.cls-4{fill:#fa4b5f;}.cls-6{fill:#ffa9a8;}.cls-7{fill:#f48989;}.cls-8{fill:#ce2445;}.cls-9{stroke:#fff1d6;}.cls-14,.cls-9{stroke-miterlimit:10;}.cls-10{fill:#fff1d6;}.cls-11{fill:#fff;}.cls-12{fill:#2c4784;}.cls-13{fill:#1c5c9d;}.cls-14{stroke:#53b2db;}.cls-15{fill:#a0542e;}.cls-16{fill:#f9a51a;}.cls-17{fill:#f9d21a;}.cls-18{fill:#a85e38;}.cls-19{fill:#fff2e6;}.cls-20{fill:#fcdfc0;}.cls-21{fill:#f28c8c;}.cls-22{fill:#e87c7c;}.cls-23{fill:#2e89bc;}.cls-24{fill:#136caa;}.cls-25{fill:#1c649d;}.cls-26{opacity:0.48;}.cls-27{clip-path:url(#clip-path);}.cls-28{fill:#27aae1;}.cls-29{fill:#8b4720;}.cls-30{fill:#d1d3d4;}.cls-31{fill:#6a3314;}.cls-32{clip-path:url(#clip-path-2);}.cls-33{fill:#f17121;}.cls-34{fill:#653112;}.cls-35{fill:#f5bf98;}.cls-36{clip-path:url(#clip-path-3);}.cls-37{fill:#5b260b;}.cls-38{fill:#e36a21;}.cls-39{fill:#ce5215;}.cls-40{fill:#d31555;}</style><clipPath id="clip-path"><rect class="cls-1" x="90.19" y="159.7" width="5.98" height="6"/></clipPath><clipPath id="clip-path-2"><rect class="cls-1" x="38.67" y="178.72" width="64.05" height="51.31"/></clipPath><clipPath id="clip-path-3"><rect class="cls-1" x="40.32" y="177.67" width="43.41" height="24.03"/></clipPath></defs><g id="Group_24" data-name="Group 24"><path id="Path_1" data-name="Path 1" class="cls-2" d="M63.17,370.27s-41.64-43-29.31-63.5c13-21.58,47.54,2.89,53.08-18.21s-32.28-59.76-7.29-85.79,162.1,70.71,243.17,30.74S427.37,120.27,400.09,75c-44.37-73.69,41.79-95.42,68.18-8.89,15.37,50.39,46.13,48.08,86.56,30.56s31.9,55.69-8.45,92.88-27.23,86.71,13.51,82.71c29.23-2.86,40.2,51.82,2.87,92.43Z"/><rect id="Rectangle_2" data-name="Rectangle 2" class="cls-3" x="287.59" y="212.91" width="39.64" height="30.04"/><path id="Path_2" data-name="Path 2" class="cls-4" d="M605.35,350.77c0,13.62-133,24.66-297.11,24.66s-297.11-11-297.11-24.66,133-24.67,297.11-24.67,297.11,11,297.11,24.67"/><path id="Path_3" data-name="Path 3" class="cls-5" d="M594.13,350.77c0,8.38-128,15.18-285.89,15.18s-285.89-6.8-285.89-15.18,128-15.19,285.89-15.19,285.89,6.8,285.89,15.19"/><path id="Path_4" data-name="Path 4" class="cls-5" d="M308.24,375.43c-164.09,0-297.11-11-297.11-24.66V369c0,13.62,133,24.66,297.11,24.66s297.11-11,297.11-24.66V350.77c0,13.62-133,24.66-297.11,24.66"/><path id="Path_5" data-name="Path 5" class="cls-4" d="M308.24,375.43c-164.09,0-297.11-11-297.11-24.66v4.08c0,13.62,133,24.66,297.11,24.66s297.11-11,297.11-24.66v-4.08c0,13.62-133,24.66-297.11,24.66"/><path id="Path_6" data-name="Path 6" class="cls-6" d="M323,132.7s26-14.42,28.71-17.45,4.61-32,4.61-32L350,81.58s-6.62,23.53-7.25,24.58S320,120.25,320,120.25Z"/><path id="Path_7" data-name="Path 7" class="cls-7" d="M331.6,113.32s-4.36,5.62-4.36,7c0,1,2.53,5.49,3.88,7.81,3-1.73,6.52-3.76,9.77-5.7Z"/><path id="Path_8" data-name="Path 8" class="cls-6" d="M350,81.58s-2.41-5.63-1.37-7c.65-.88,2.19,0,2.19,0,1-6,3.2-2.91,3.2-2.91s.06-1.25,2.47,0a17.85,17.85,0,0,1,1.46,2.2s1.79-.38,1.94.49c.45,2.64-3.56,8.86-3.56,8.86Z"/><path id="Path_9" data-name="Path 9" class="cls-4" d="M307,119.34l24.08-7.19L337.45,127l-21.09,11.91Z"/><path id="Path_10" data-name="Path 10" class="cls-8" d="M321.46,129.88l-2.2.91,0,6.47L337.45,127Z"/><line id="Line_2" data-name="Line 2" class="cls-9" x1="329.25" y1="114.38" x2="334.64" y2="126.22"/><path id="Path_11" data-name="Path 11" class="cls-3" d="M283.52,91.63c1.13-4.75,4.16-6.07,4.16-6.07s.83-6.87,9.36-8.12C307.1,76,319.41,75.31,319.26,91a15.79,15.79,0,0,1-3.48,9.83l-21.21,9.59c-7-3.93-12.19-14.06-11.05-18.8"/><path id="Path_12" data-name="Path 12" class="cls-4" d="M298.28,119.21l-16.94,7v62.15H328.5s-5.38-58.47-8.46-63.52c-2.52-4.12-13.34-5.64-13.34-5.64Z"/><path id="Path_13" data-name="Path 13" class="cls-10" d="M298.28,119.21l-2.62,1.09s.15,8.27,7.76,7.81c5.42-.33,5.82-5.52,5.6-8.48-1.38-.29-2.32-.42-2.32-.42Z"/><path id="Path_14" data-name="Path 14" class="cls-6" d="M293,105.16l5.23,17.68a4.57,4.57,0,0,0,4.33,3.37,4.7,4.7,0,0,0,4.54-4.85c0-.06,0-.12,0-.18l-.33-7.73Z"/><path id="Path_15" data-name="Path 15" class="cls-7" d="M307,119.34c-10-.72-12.45-10.93-12.45-10.93l2.9-.57,9.3,5.61Z"/><path id="Path_16" data-name="Path 16" class="cls-6" d="M293,105.16a4.8,4.8,0,0,1-3.41-5.34c.5-4.3,3.74-3.74,4.82-1.4a9.65,9.65,0,0,1,.78,2.85l.77-.09s1.87-7.32,4.5-9.09,6.93.42,8.84.54c1.31.08,4.54-1.08,5.32-.72,2.11,1,1.95,18.78-3.88,23.29s-15.49-3.12-17.74-10"/><path id="Path_17" data-name="Path 17" class="cls-11" d="M309.43,107.52a7.18,7.18,0,0,0-1.85.18c-.47.2-.12,4.13,1.67,4s2-3.55,1.78-3.86-1.6-.27-1.6-.27"/><path id="Path_18" data-name="Path 18" class="cls-12" d="M304.92,94h0Z"/><path id="Path_19" data-name="Path 19" class="cls-13" d="M294.57,244.37l26.86-56H281.34l-12.92,42.69c-2.83,9.67.05,18.94,9.4,20.93,6.88,1.47,13.37-1.09,16.75-7.63"/><path id="Path_20" data-name="Path 20" class="cls-14" d="M279,206.14s10.08-3.48,9.75-15.57"/><path id="Path_21" data-name="Path 21" class="cls-4" d="M281.34,126.22l-17.7,27.57,13.12,9.09,4.58-9.09Z"/><path id="Path_22" data-name="Path 22" class="cls-8" d="M281.34,146l-4.58,16.87,4.58-9.08Z"/><path id="Path_23" data-name="Path 23" class="cls-13" d="M328.5,188.38l29.21,29.24A15.4,15.4,0,0,1,359,238a13.34,13.34,0,0,1-17.68,3.21l-33.53-24.38-4.33-28.47Z"/><path id="Path_24" data-name="Path 24" class="cls-14" d="M271.11,231.28s2.44-5.82,12.52-4.17S294,240.78,294,240.78"/><path id="Path_25" data-name="Path 25" class="cls-14" d="M340.36,235.06s-2.65-6.21,3.93-11.74,12.78-1.45,12.78-1.45"/><path id="Path_26" data-name="Path 26" class="cls-14" d="M324,190.58s1.9,10.47,13.9,12.94"/><line id="Line_3" data-name="Line 3" class="cls-9" x1="276.2" y1="159.44" x2="267.04" y2="152.64"/><path id="Path_27" data-name="Path 27" class="cls-7" d="M293.35,99.55s-.9-1.26-1.76-.92-1.1,3.4.65,4.47c0,0-1-1.95-.46-3a1.18,1.18,0,0,1,1.57-.56"/><path id="Path_28" data-name="Path 28" class="cls-13" d="M397.05,310.48l21.79-3.26,1.42,3.09-27.47,14.23L389,314.63Z"/><path id="Path_29" data-name="Path 29" class="cls-11" d="M407.35,311.19a.76.76,0,0,0,.4-.75l-.22-2.5a.72.72,0,0,0-.76-.68h0a.74.74,0,0,0-.64.82l.22,2.5a.71.71,0,0,0,.76.68h0a.52.52,0,0,0,.25-.07"/><path id="Path_30" data-name="Path 30" class="cls-11" d="M404.61,311.63a.76.76,0,0,0,.4-.75l-.21-2.5a.74.74,0,0,0-.77-.69h0a.75.75,0,0,0-.65.83l.22,2.49a.74.74,0,0,0,.77.69h0a.57.57,0,0,0,.25-.08"/><path id="Path_31" data-name="Path 31" class="cls-11" d="M401.88,312.07a.78.78,0,0,0,.39-.76l-.22-2.49a.74.74,0,0,0-.77-.69h0a.74.74,0,0,0-.64.83l.22,2.49a.73.73,0,0,0,.76.69h0a.67.67,0,0,0,.24-.07"/><path id="Path_32" data-name="Path 32" class="cls-6" d="M397.05,310.48l-38.11-81.7a7.9,7.9,0,0,0-10.48-3.87,9.27,9.27,0,0,0-.82.44,9,9,0,0,0-2.78,12.07L389,314.63Z"/><path id="Path_33" data-name="Path 33" class="cls-7" d="M349.55,245.62,371,283.19c1.69.23,2.82.33,2.82.33L372,256.84l-6.77-14.53c-4.15.91-10.74,2.45-15.71,3.31"/><path id="Path_34" data-name="Path 34" class="cls-7" d="M347.94,237.09c-2.55-8.51.49-12.15.51-12.18a9.1,9.1,0,0,0-.81.44,9,9,0,0,0-2.78,12.07l8.27,13.94a122.84,122.84,0,0,1-5.19-14.27"/><path id="Path_35" data-name="Path 35" class="cls-6" d="M265,154.64s-4.28,6.66-3.5,9.76c1.41,5.64,35.11,21.67,35.11,21.67v-9L276.2,162.41Z"/><path id="Path_36" data-name="Path 36" class="cls-7" d="M288.74,182.18l4.37-6.79,3.48,9v.14l-1.27.91c-1.36-.66-3.71-1.82-6.58-3.28"/><path id="Path_37" data-name="Path 37" class="cls-7" d="M265,154.64l11.22,7.77-12.72-5.14c.79-1.51,1.5-2.63,1.5-2.63"/><path id="Path_38" data-name="Path 38" class="cls-6" d="M295.14,175.15a2,2,0,0,1,1.67-2.24,2.46,2.46,0,0,1,.47,0h1.48a1.76,1.76,0,0,1,1.69,1.81v.08l-.07,1.29Z"/><path id="Path_39" data-name="Path 39" class="cls-3" d="M293.67,194.18l12.24-41a1.18,1.18,0,0,0-.71-1.45,1.08,1.08,0,0,0-1.35.71v0l-12.24,41a1.17,1.17,0,0,0,.7,1.45,1.08,1.08,0,0,0,1.35-.7.11.11,0,0,0,0,0"/><path id="Path_40" data-name="Path 40" class="cls-3" d="M364.66,81.28,329.54,59.81a1.06,1.06,0,0,0-1.45.37l0,.06a1.2,1.2,0,0,0,.4,1.57l35.12,21.47a1.06,1.06,0,0,0,1.45-.36l0-.07a1.19,1.19,0,0,0-.4-1.57"/><path id="Path_41" data-name="Path 41" class="cls-6" d="M300.45,175.39s-6.72-.71-7.34,0-1.3,9.87.36,10.34,6.9.4,7.25-.41,1.21-9.27-.27-9.93"/><path id="Path_42" data-name="Path 42" class="cls-14" d="M309.51,190.58l3.4,15.57-2.72,4.36"/><path id="Path_43" data-name="Path 43" class="cls-13" d="M276.74,308.36l-19.89,10,.42,3.41,30.32-4.16-2-10.47Z"/><path id="Path_44" data-name="Path 44" class="cls-11" d="M268.51,315a.73.73,0,0,1-.73-.4l-1.11-2.21a.79.79,0,0,1,.3-1,.69.69,0,0,1,.94.26l0,.05,1.11,2.22a.77.77,0,0,1-.29,1,.57.57,0,0,1-.25.08"/><path id="Path_45" data-name="Path 45" class="cls-11" d="M271,313.73a.69.69,0,0,1-.72-.4l-1.11-2.21a.77.77,0,0,1,.29-1,.7.7,0,0,1,.95.26s0,0,0,.05l1.11,2.21a.79.79,0,0,1-.3,1,.68.68,0,0,1-.24.08"/><path id="Path_46" data-name="Path 46" class="cls-11" d="M273.54,312.5a.7.7,0,0,1-.73-.4l-1.11-2.21a.79.79,0,0,1,.3-1,.7.7,0,0,1,.94.26.14.14,0,0,1,0,.06l1.11,2.21a.77.77,0,0,1-.29,1,.58.58,0,0,1-.25.09"/><path id="Path_47" data-name="Path 47" class="cls-6" d="M276.74,308.36l-10.13-48,5.26-23.08A8.71,8.71,0,0,1,282,230.63c5.2,1.11,8.27,6.84,6.51,12.15l-7.2,21.46,4.27,42.9Z"/><path id="Path_48" data-name="Path 48" class="cls-7" d="M286,240.48c-.07,5.75-4.63,23.76-4.63,23.76l7.2-21.46c1.76-5.31-1.31-11-6.51-12.15a15.19,15.19,0,0,1,3.94,9.85"/><path id="Path_49" data-name="Path 49" class="cls-3" d="M437.62,195.88h0a1.8,1.8,0,0,1,1.75,1.84v51.09h-3.49V197.73a1.8,1.8,0,0,1,1.74-1.85"/><path id="Path_50" data-name="Path 50" class="cls-15" d="M437.94,195.91v52.9h1.43V197.73a1.82,1.82,0,0,0-1.43-1.82"/><rect id="Rectangle_3" data-name="Rectangle 3" class="cls-3" x="434.52" y="248.81" width="6.2" height="67.88"/><rect id="Rectangle_4" data-name="Rectangle 4" class="cls-15" x="406.85" y="312.35" width="59.94" height="4.34"/><rect id="Rectangle_5" data-name="Rectangle 5" class="cls-15" x="438.74" y="248.81" width="1.98" height="67.88"/><path id="Path_51" data-name="Path 51" class="cls-3" d="M477.73,333.12,479.6,331,445,270.74l-7.5,6.28Z"/><path id="Path_52" data-name="Path 52" class="cls-16" d="M480.49,340.66h0a3.4,3.4,0,0,1-2.64-3.94l.06-.38-3-4.41,4.91-3.57,3.95,7.21c1.37,2.5-.63,5.57-3.32,5.09"/><path id="Path_53" data-name="Path 53" class="cls-3" d="M397.52,333.12,395.65,331l34.57-60.3,7.5,6.28Z"/><path id="Path_54" data-name="Path 54" class="cls-16" d="M394.76,340.66h0a3.4,3.4,0,0,0,2.64-3.94l-.06-.38,3-4.41-4.91-3.57-3.95,7.21c-1.37,2.5.63,5.57,3.32,5.09"/><path id="Path_55" data-name="Path 55" class="cls-16" d="M428,271.88c0,5.58,4.26,10.1,9.51,10.1s9.51-4.52,9.51-10.1-4.26-10.1-9.51-10.1S428,266.3,428,271.88"/><path id="Path_56" data-name="Path 56" class="cls-17" d="M432.24,271.88a5.3,5.3,0,1,0,5.29-5.62,5.47,5.47,0,0,0-5.29,5.62"/><path id="Path_57" data-name="Path 57" class="cls-16" d="M481.52,209.77c0,3.43-19.71,6.22-44,6.22s-44-2.79-44-6.22,19.72-6.23,44-6.23,44,2.79,44,6.23"/><path id="Path_58" data-name="Path 58" class="cls-16" d="M437.49,216c24.32,0,44-2.79,44-6.22H393.46c0,3.43,19.71,6.22,44,6.22"/><path id="Path_59" data-name="Path 59" class="cls-15" d="M481.52,209.77c0,.31-19.71.56-44,.56s-44-.25-44-.56,19.72-.57,44-.57,44,.26,44,.57"/><rect id="Rectangle_6" data-name="Rectangle 6" class="cls-3" x="244.53" y="253.68" width="4.76" height="68.58"/><rect id="Rectangle_7" data-name="Rectangle 7" class="cls-15" x="224.5" y="318.92" width="46.05" height="3.34"/><rect id="Rectangle_8" data-name="Rectangle 8" class="cls-15" x="244.53" y="253.68" width="1.52" height="68.58"/><path id="Path_60" data-name="Path 60" class="cls-3" d="M216.1,334.88l-1.44-1.6L241.22,287l5.76,4.82Z"/><path id="Path_61" data-name="Path 61" class="cls-16" d="M214,340.67h0a2.61,2.61,0,0,0,2-3l0-.3,2.27-3.38-3.77-2.75-3,5.54a2.6,2.6,0,0,0,2.54,3.91"/><path id="Path_62" data-name="Path 62" class="cls-3" d="M277.71,334.88l1.44-1.6L252.59,287l-5.75,4.82Z"/><path id="Path_63" data-name="Path 63" class="cls-16" d="M279.84,340.67h0a2.6,2.6,0,0,1-2-3l0-.3L275.58,334l3.77-2.75,3,5.54a2.6,2.6,0,0,1-2.55,3.91"/><path id="Path_64" data-name="Path 64" class="cls-16" d="M254.29,287.84a7.32,7.32,0,1,1-7.31-7.76,7.55,7.55,0,0,1,7.31,7.76"/><path id="Path_65" data-name="Path 65" class="cls-17" d="M251,287.84a4.07,4.07,0,1,1-4.06-4.32,4.19,4.19,0,0,1,4.06,4.32"/><rect id="Rectangle_9" data-name="Rectangle 9" class="cls-3" x="366.07" y="253.68" width="4.76" height="68.58"/><rect id="Rectangle_10" data-name="Rectangle 10" class="cls-15" x="346.05" y="318.92" width="46.05" height="3.34"/><rect id="Rectangle_11" data-name="Rectangle 11" class="cls-15" x="366.07" y="253.68" width="1.52" height="68.58"/><path id="Path_66" data-name="Path 66" class="cls-3" d="M337.65,334.88l-1.44-1.6L362.76,287l5.76,4.82Z"/><path id="Path_67" data-name="Path 67" class="cls-16" d="M335.52,340.67h0a2.61,2.61,0,0,0,2-3l-.05-.3,2.27-3.38L336,331.22l-3,5.54a2.6,2.6,0,0,0,2.55,3.91"/><path id="Path_68" data-name="Path 68" class="cls-3" d="M399.26,334.88l1.44-1.6L374.14,287l-5.76,4.82Z"/><path id="Path_69" data-name="Path 69" class="cls-16" d="M401.39,340.67h0a2.6,2.6,0,0,1-2-3l0-.3L397.13,334l3.77-2.75,3,5.54a2.6,2.6,0,0,1-2.55,3.91"/><path id="Path_70" data-name="Path 70" class="cls-16" d="M375.83,287.84a7.32,7.32,0,1,1-7.3-7.76,7.54,7.54,0,0,1,7.3,7.76"/><path id="Path_71" data-name="Path 71" class="cls-17" d="M372.59,287.84a4.07,4.07,0,1,1-4.06-4.32,4.19,4.19,0,0,1,4.06,4.32"/><path id="Path_72" data-name="Path 72" class="cls-16" d="M372.25,171.28c4.9,10.55,23.4,11.48,41.33,2.09s28.49-25.55,23.59-36.1-23.41-11.48-41.34-2.09-28.48,25.55-23.58,36.1"/><path id="Path_73" data-name="Path 73" class="cls-17" d="M395.84,135.18c15.34-8,31.11-8.51,38.4-1.86-7.85-5.22-22.46-4.29-36.71,3.17-17.93,9.4-28.49,25.56-23.59,36.11a12.46,12.46,0,0,0,2.92,3.94,12.68,12.68,0,0,1-4.61-5.26c-4.9-10.55,5.66-26.71,23.58-36.1"/><path id="Path_74" data-name="Path 74" class="cls-3" d="M400.74,156.35c.6,1.29,2.86,1.41,5.05.26s3.48-3.12,2.88-4.41-2.86-1.41-5.05-.26-3.48,3.12-2.88,4.41"/><rect id="Rectangle_12" data-name="Rectangle 12" class="cls-3" x="416.68" y="194.54" width="3.49" height="33.5"/><rect id="Rectangle_13" data-name="Rectangle 13" class="cls-15" x="418.83" y="194.54" width="1.34" height="33.5"/><rect id="Rectangle_14" data-name="Rectangle 14" class="cls-3" x="416.78" y="228.04" width="3.49" height="29.82"/><rect id="Rectangle_15" data-name="Rectangle 15" class="cls-15" x="418.83" y="228.04" width="1.43" height="29.82"/><rect id="Rectangle_16" data-name="Rectangle 16" class="cls-3" x="415.42" y="257.86" width="6.2" height="67.88"/><rect id="Rectangle_17" data-name="Rectangle 17" class="cls-3" x="387.74" y="321.4" width="59.94" height="4.34"/><rect id="Rectangle_18" data-name="Rectangle 18" class="cls-15" x="419.64" y="257.86" width="1.98" height="67.88"/><path id="Path_75" data-name="Path 75" class="cls-15" d="M458.62,342.17l1.87-2.08-34.57-60.3-7.5,6.28Z"/><path id="Path_76" data-name="Path 76" class="cls-15" d="M420.91,188.78h0a4.93,4.93,0,0,1,0,9.84h-2.49v-9.84Z"/><path id="Path_77" data-name="Path 77" class="cls-3" d="M413.79,193.7a4.64,4.64,0,1,0,4.64-4.92,4.79,4.79,0,0,0-4.64,4.92"/><path id="Path_78" data-name="Path 78" class="cls-3" d="M427.19,207.6a.72.72,0,0,0,.32-.08.84.84,0,0,0,.39-1.09l-22.49-52.5a.74.74,0,0,0-1-.42h0a.85.85,0,0,0-.39,1.09l22.49,52.51a.78.78,0,0,0,.7.48"/><path id="Path_79" data-name="Path 79" class="cls-16" d="M461.38,349.71h0a3.39,3.39,0,0,1-2.64-3.93l.06-.39-3-4.4,4.91-3.58,3.95,7.21c1.37,2.51-.63,5.57-3.32,5.09"/><path id="Path_80" data-name="Path 80" class="cls-15" d="M378.41,342.17l-1.87-2.08,34.57-60.3,7.5,6.28Z"/><path id="Path_81" data-name="Path 81" class="cls-16" d="M375.65,349.71h0a3.41,3.41,0,0,0,2.65-3.93l-.06-.39,2.95-4.4-4.91-3.58-3.95,7.21c-1.37,2.5.63,5.57,3.32,5.09"/><path id="Path_82" data-name="Path 82" class="cls-16" d="M408.91,280.94c0,5.58,4.26,10.1,9.52,10.1s9.51-4.52,9.51-10.1-4.26-10.11-9.51-10.11-9.52,4.53-9.52,10.11"/><path id="Path_83" data-name="Path 83" class="cls-17" d="M413.13,280.94a5.3,5.3,0,1,0,5.29-5.63,5.47,5.47,0,0,0-5.29,5.63"/><rect id="Rectangle_19" data-name="Rectangle 19" class="cls-16" x="216.15" y="221.49" width="59.78" height="35.34"/><rect id="Rectangle_20" data-name="Rectangle 20" class="cls-3" x="216.15" y="221.49" width="59.78" height="3.81"/><rect id="Rectangle_21" data-name="Rectangle 21" class="cls-3" x="216.15" y="226.63" width="59.78" height="3.81"/><rect id="Rectangle_22" data-name="Rectangle 22" class="cls-11" x="216.15" y="225.31" width="59.78" height="1.32"/><rect id="Rectangle_23" data-name="Rectangle 23" class="cls-3" x="216.15" y="247.89" width="59.78" height="3.81"/><rect id="Rectangle_24" data-name="Rectangle 24" class="cls-3" x="216.15" y="253.02" width="59.78" height="3.81"/><rect id="Rectangle_25" data-name="Rectangle 25" class="cls-11" x="216.15" y="251.7" width="59.78" height="1.32"/><path id="Path_84" data-name="Path 84" class="cls-15" d="M246.11,239.79H246a.83.83,0,0,0-.8.85v10.79a.83.83,0,0,0,.8.84h.14a.82.82,0,0,0,.79-.84V240.64a.82.82,0,0,0-.79-.85"/><path id="Path_85" data-name="Path 85" class="cls-15" d="M246,236.79h.14a.81.81,0,0,0,.79-.84v-7.79a.82.82,0,0,0-.79-.84H246a.82.82,0,0,0-.8.84V236a.82.82,0,0,0,.8.84"/><path id="Path_86" data-name="Path 86" class="cls-15" d="M276,239.79h-.15a.83.83,0,0,0-.79.85v10.79a.82.82,0,0,0,.79.84H276a.82.82,0,0,0,.79-.84V240.64a.82.82,0,0,0-.79-.85"/><path id="Path_87" data-name="Path 87" class="cls-15" d="M275.85,236.79H276a.82.82,0,0,0,.79-.84v-7.79a.82.82,0,0,0-.79-.84h-.15a.82.82,0,0,0-.79.84V236a.82.82,0,0,0,.79.84"/><path id="Path_88" data-name="Path 88" class="cls-15" d="M216.22,239.79h-.14a.82.82,0,0,0-.79.85v10.79a.82.82,0,0,0,.79.84h.14a.82.82,0,0,0,.8-.84V240.64a.83.83,0,0,0-.8-.85"/><path id="Path_89" data-name="Path 89" class="cls-15" d="M216.08,236.79h.14a.82.82,0,0,0,.8-.84v-7.79a.82.82,0,0,0-.8-.84h-.14a.83.83,0,0,0-.8.84V236a.82.82,0,0,0,.8.84"/><rect id="Rectangle_26" data-name="Rectangle 26" class="cls-16" x="338.57" y="221.49" width="59.77" height="35.34"/><rect id="Rectangle_27" data-name="Rectangle 27" class="cls-3" x="338.57" y="221.49" width="59.77" height="3.81"/><rect id="Rectangle_28" data-name="Rectangle 28" class="cls-3" x="338.57" y="226.63" width="59.77" height="3.81"/><rect id="Rectangle_29" data-name="Rectangle 29" class="cls-11" x="338.57" y="225.31" width="59.77" height="1.32"/><rect id="Rectangle_30" data-name="Rectangle 30" class="cls-3" x="338.57" y="247.89" width="59.77" height="3.81"/><rect id="Rectangle_31" data-name="Rectangle 31" class="cls-3" x="338.57" y="253.02" width="59.77" height="3.81"/><rect id="Rectangle_32" data-name="Rectangle 32" class="cls-11" x="338.57" y="251.7" width="59.77" height="1.32"/><path id="Path_90" data-name="Path 90" class="cls-15" d="M368.38,239.79h.15a.83.83,0,0,1,.79.85v10.79a.82.82,0,0,1-.79.84h-.15a.82.82,0,0,1-.79-.84V240.64a.83.83,0,0,1,.79-.85"/><path id="Path_91" data-name="Path 91" class="cls-15" d="M368.53,236.79h-.15a.82.82,0,0,1-.79-.84v-7.79a.82.82,0,0,1,.79-.84h.15a.82.82,0,0,1,.79.84V236a.82.82,0,0,1-.79.84"/><path id="Path_92" data-name="Path 92" class="cls-15" d="M338.49,239.79h.15a.82.82,0,0,1,.79.85v10.79a.82.82,0,0,1-.79.84h-.15a.82.82,0,0,1-.79-.84V240.64a.83.83,0,0,1,.79-.85"/><path id="Path_93" data-name="Path 93" class="cls-15" d="M338.64,236.79h-.15a.82.82,0,0,1-.79-.84v-7.79a.82.82,0,0,1,.79-.84h.15a.82.82,0,0,1,.79.84V236a.82.82,0,0,1-.79.84"/><path id="Path_94" data-name="Path 94" class="cls-15" d="M398.27,239.79h.15a.83.83,0,0,1,.79.85v10.79a.82.82,0,0,1-.79.84h-.15a.82.82,0,0,1-.79-.84V240.64a.82.82,0,0,1,.79-.85"/><path id="Path_95" data-name="Path 95" class="cls-15" d="M398.42,236.79h-.15a.82.82,0,0,1-.8-.84h0v-7.79a.83.83,0,0,1,.8-.84h.15a.82.82,0,0,1,.79.84V236a.82.82,0,0,1-.79.84"/><path id="Path_96" data-name="Path 96" class="cls-15" d="M320.5,200.84h0a1.8,1.8,0,0,0-1.74-1.85H294v3.7h24.77a1.8,1.8,0,0,0,1.74-1.85"/><path id="Path_97" data-name="Path 97" class="cls-3" d="M318.76,200.84H294v1.85h24.77a1.8,1.8,0,0,0,1.74-1.85,2,2,0,0,0-.24-.92,1.73,1.73,0,0,1-1.5.92"/><path id="Path_98" data-name="Path 98" class="cls-16" d="M275.13,166.6c13.73,0,24.86,4.39,24.86,9.8v46.31H250.27V176.4c0-5.41,11.13-9.8,24.86-9.8"/><path id="Path_99" data-name="Path 99" class="cls-3" d="M275.13,166.6c13.73,0,24.86,4.39,24.86,9.8V181c0-5.41-11.13-9.8-24.86-9.8s-24.86,4.39-24.86,9.8V176.4c0-5.41,11.13-9.8,24.86-9.8"/><path id="Path_100" data-name="Path 100" class="cls-3" d="M275.13,205.6c13.73,0,24.86,4.38,24.86,9.79v4.17H250.27v-4.17c0-5.41,11.13-9.79,24.86-9.79"/><path id="Path_101" data-name="Path 101" class="cls-11" d="M275.13,207.86c13.73,0,24.86,4.38,24.86,9.79v4.17H250.27v-4.17c0-5.41,11.13-9.79,24.86-9.79"/><path id="Path_102" data-name="Path 102" class="cls-3" d="M275.13,208.75c13.73,0,24.86,4.38,24.86,9.79v4.17H250.27v-4.17c0-5.41,11.13-9.79,24.86-9.79"/><path id="Path_103" data-name="Path 103" class="cls-3" d="M275.13,210c13.73,0,24.86,4.38,24.86,9.79v1.62H250.27v-1.62c0-5.41,11.13-9.79,24.86-9.79"/><path id="Path_104" data-name="Path 104" class="cls-18" d="M250.27,222.71c0,5.41,11.13,9.8,24.86,9.8s24.86-4.39,24.86-9.8-11.13-9.8-24.86-9.8-24.86,4.39-24.86,9.8"/><path id="Path_105" data-name="Path 105" class="cls-3" d="M275.13,229.45c12.41,0,22.7-3.58,24.56-8.27a4,4,0,0,1,.3,1.53c0,5.41-11.13,9.8-24.86,9.8s-24.86-4.39-24.86-9.8a4,4,0,0,1,.3-1.53c1.86,4.69,12.15,8.27,24.56,8.27"/><path id="Path_106" data-name="Path 106" class="cls-15" d="M275.13,175.74h0a.82.82,0,0,0,.79-.84v-5.55a.79.79,0,1,0-1.58,0v5.55a.82.82,0,0,0,.79.84"/><path id="Path_107" data-name="Path 107" class="cls-15" d="M275.13,199.48h0a.82.82,0,0,0-.79.84v5.55a.8.8,0,0,0,1.59,0v-5.55a.82.82,0,0,0-.79-.84"/><path id="Path_108" data-name="Path 108" class="cls-15" d="M295.19,180.27h0a.82.82,0,0,0,.79-.84v-5.55a.8.8,0,0,0-1.59,0v5.55a.82.82,0,0,0,.8.84"/><path id="Path_109" data-name="Path 109" class="cls-15" d="M295.19,204h0a.82.82,0,0,0-.79.84v5.55a.79.79,0,0,0,1.58,0h0v-5.55a.82.82,0,0,0-.79-.84"/><path id="Path_110" data-name="Path 110" class="cls-15" d="M255.08,180.27h0a.82.82,0,0,1-.8-.84v-5.55a.79.79,0,0,1,.8-.79.79.79,0,0,1,.79.79v5.55a.82.82,0,0,1-.79.84"/><path id="Path_111" data-name="Path 111" class="cls-15" d="M255.08,204h0a.82.82,0,0,1,.79.84v5.55a.8.8,0,0,1-1.59,0h0v-5.55a.82.82,0,0,1,.79-.84"/><path id="Path_112" data-name="Path 112" class="cls-16" d="M339.36,166.6c-13.73,0-24.86,4.39-24.86,9.8v46.31h49.73V176.4c0-5.41-11.14-9.8-24.87-9.8"/><path id="Path_113" data-name="Path 113" class="cls-3" d="M339.36,166.6c-13.73,0-24.86,4.39-24.86,9.8V181c0-5.41,11.13-9.8,24.86-9.8s24.87,4.39,24.87,9.8V176.4c0-5.41-11.14-9.8-24.87-9.8"/><path id="Path_114" data-name="Path 114" class="cls-3" d="M339.36,205.6c-13.73,0-24.86,4.38-24.86,9.79v4.17h49.73v-4.17c0-5.41-11.14-9.79-24.87-9.79"/><path id="Path_115" data-name="Path 115" class="cls-11" d="M339.36,207.86c-13.73,0-24.86,4.38-24.86,9.79v4.17h49.73v-4.17c0-5.41-11.14-9.79-24.87-9.79"/><path id="Path_116" data-name="Path 116" class="cls-3" d="M339.36,208.75c-13.73,0-24.86,4.38-24.86,9.79v4.17h49.73v-4.17c0-5.41-11.14-9.79-24.87-9.79"/><path id="Path_117" data-name="Path 117" class="cls-3" d="M339.36,210c-13.73,0-24.86,4.38-24.86,9.79v1.62h49.73v-1.62c0-5.41-11.14-9.79-24.87-9.79"/><path id="Path_118" data-name="Path 118" class="cls-18" d="M364.23,222.71c0,5.41-11.14,9.8-24.87,9.8s-24.86-4.39-24.86-9.8,11.13-9.8,24.87-9.8,24.86,4.39,24.86,9.8"/><path id="Path_119" data-name="Path 119" class="cls-3" d="M339.36,229.45c-12.41,0-22.7-3.58-24.56-8.27a4.25,4.25,0,0,0-.3,1.53c0,5.41,11.13,9.8,24.86,9.8s24.87-4.39,24.87-9.8a4.26,4.26,0,0,0-.31-1.53c-1.86,4.69-12.14,8.27-24.56,8.27"/><path id="Path_120" data-name="Path 120" class="cls-15" d="M339.36,175.74h0a.82.82,0,0,1-.79-.84v-5.55a.79.79,0,0,1,.76-.83.79.79,0,0,1,.83.75v5.63a.82.82,0,0,1-.79.84"/><path id="Path_121" data-name="Path 121" class="cls-15" d="M339.36,199.48h0a.82.82,0,0,1,.79.84v5.55a.79.79,0,0,1-.75.83.79.79,0,0,1-.83-.76.09.09,0,0,1,0-.07v-5.55a.82.82,0,0,1,.79-.84"/><path id="Path_122" data-name="Path 122" class="cls-15" d="M319.31,180.27h0a.82.82,0,0,1-.8-.84v-5.55a.79.79,0,0,1,.76-.83.79.79,0,0,1,.83.75v5.63a.82.82,0,0,1-.79.84"/><path id="Path_123" data-name="Path 123" class="cls-15" d="M319.31,204h0a.82.82,0,0,1,.79.84v5.55a.79.79,0,0,1-.76.83.78.78,0,0,1-.83-.75v-5.63a.82.82,0,0,1,.79-.84"/><path id="Path_124" data-name="Path 124" class="cls-15" d="M359.42,180.27h0a.82.82,0,0,0,.79-.84v-5.55a.8.8,0,0,0-1.59-.08v5.63a.82.82,0,0,0,.79.84"/><path id="Path_125" data-name="Path 125" class="cls-15" d="M359.42,204h0a.82.82,0,0,0-.79.84v5.55a.79.79,0,0,0,1.58.08.11.11,0,0,0,0-.08v-5.55a.82.82,0,0,0-.79-.84"/><path id="Path_126" data-name="Path 126" class="cls-15" d="M307.25,186.77h0a1.81,1.81,0,0,0-1.75,1.85v26.29H309V188.62a1.8,1.8,0,0,0-1.74-1.85"/><path id="Path_127" data-name="Path 127" class="cls-3" d="M307.74,186.85a1.62,1.62,0,0,0-.49-.08,1.8,1.8,0,0,0-1.75,1.84v26.3h1V188.62a1.84,1.84,0,0,1,1.24-1.77"/><path id="Path_128" data-name="Path 128" class="cls-15" d="M307.25,210.75h0a3.2,3.2,0,0,0-3.1,3.3v26.61a3.1,3.1,0,0,0,6.2.34V214.05a3.2,3.2,0,0,0-3.1-3.29"/><path id="Path_129" data-name="Path 129" class="cls-3" d="M305.89,240.66V214.05a3.26,3.26,0,0,1,2.23-3.14,2.61,2.61,0,0,0-.87-.15,3.19,3.19,0,0,0-3.1,3.29v26.61a3.2,3.2,0,0,0,3.1,3.3,3.24,3.24,0,0,0,.87-.15,3.26,3.26,0,0,1-2.23-3.15"/><path id="Path_130" data-name="Path 130" class="cls-3" d="M362.52,292.07c0,32.42-24.75,58.7-55.27,58.7S252,324.49,252,292.07s24.74-58.69,55.27-58.69,55.27,26.28,55.27,58.69"/><path id="Path_131" data-name="Path 131" class="cls-19" d="M357.66,292.07c0,29.57-22.57,53.54-50.41,53.54s-50.42-24-50.42-53.54,22.58-53.53,50.42-53.53,50.41,24,50.41,53.53"/><path id="Path_132" data-name="Path 132" class="cls-20" d="M335.5,247.73a55.61,55.61,0,0,1,8.65,30c0,29.57-22.57,53.54-50.41,53.54a48.12,48.12,0,0,1-28.25-9.2c9.06,14.21,24.38,23.54,41.76,23.54,27.84,0,50.41-24,50.41-53.54a54.45,54.45,0,0,0-22.16-44.34"/><path id="Path_133" data-name="Path 133" class="cls-16" d="M236.87,171.28c-4.9,10.55-23.41,11.48-41.33,2.09s-28.49-25.55-23.59-36.1,23.4-11.48,41.33-2.09,28.49,25.55,23.59,36.1"/><path id="Path_134" data-name="Path 134" class="cls-17" d="M213.28,135.18c-15.35-8-31.11-8.51-38.41-1.86,7.86-5.22,22.47-4.29,36.72,3.17,17.93,9.4,28.49,25.56,23.59,36.11a12.49,12.49,0,0,1-2.93,3.94,12.77,12.77,0,0,0,4.62-5.26c4.9-10.55-5.66-26.71-23.59-36.1"/><path id="Path_135" data-name="Path 135" class="cls-3" d="M208.37,156.35c-.59,1.29-2.86,1.41-5.05.26s-3.48-3.12-2.88-4.41,2.86-1.41,5.05-.26,3.48,3.12,2.89,4.41"/><rect id="Rectangle_33" data-name="Rectangle 33" class="cls-3" x="188.95" y="194.54" width="3.49" height="33.5"/><rect id="Rectangle_34" data-name="Rectangle 34" class="cls-15" x="188.95" y="194.54" width="1.34" height="33.5"/><rect id="Rectangle_35" data-name="Rectangle 35" class="cls-3" x="188.86" y="228.04" width="3.49" height="29.82"/><rect id="Rectangle_36" data-name="Rectangle 36" class="cls-15" x="188.85" y="228.04" width="1.43" height="29.82"/><rect id="Rectangle_37" data-name="Rectangle 37" class="cls-3" x="187.5" y="257.86" width="6.2" height="67.88"/><rect id="Rectangle_38" data-name="Rectangle 38" class="cls-3" x="161.43" y="321.4" width="59.94" height="4.34"/><rect id="Rectangle_39" data-name="Rectangle 39" class="cls-15" x="187.5" y="257.86" width="1.98" height="67.88"/><path id="Path_136" data-name="Path 136" class="cls-15" d="M150.49,342.17l-1.87-2.08,34.57-60.3,7.5,6.28Z"/><path id="Path_137" data-name="Path 137" class="cls-15" d="M188.21,188.78h0a4.93,4.93,0,0,0,0,9.84h2.48v-9.84Z"/><path id="Path_138" data-name="Path 138" class="cls-3" d="M195.32,193.7a4.64,4.64,0,1,1-4.63-4.92,4.77,4.77,0,0,1,4.63,4.92"/><path id="Path_139" data-name="Path 139" class="cls-3" d="M181.92,207.6a.72.72,0,0,1-.32-.08.85.85,0,0,1-.38-1.09l22.48-52.5a.75.75,0,0,1,1-.42h0a.85.85,0,0,1,.38,1.09l-22.48,52.51a.79.79,0,0,1-.71.48"/><path id="Path_140" data-name="Path 140" class="cls-16" d="M147.73,349.71h0a3.41,3.41,0,0,0,2.65-3.93l-.06-.39,3-4.4-4.91-3.58-3.94,7.21c-1.37,2.5.62,5.57,3.31,5.09"/><path id="Path_141" data-name="Path 141" class="cls-15" d="M230.7,342.17l1.87-2.08L198,279.79l-7.49,6.28Z"/><path id="Path_142" data-name="Path 142" class="cls-16" d="M233.46,349.71h0a3.39,3.39,0,0,1-2.64-3.93l.06-.39-3-4.4,4.91-3.58,3.95,7.21c1.37,2.5-.63,5.57-3.32,5.09"/><path id="Path_143" data-name="Path 143" class="cls-16" d="M200.2,280.94c0,5.58-4.26,10.1-9.51,10.1s-9.51-4.52-9.51-10.1,4.26-10.11,9.51-10.11,9.51,4.53,9.51,10.11"/><path id="Path_144" data-name="Path 144" class="cls-17" d="M196,280.94a5.3,5.3,0,1,1-5.29-5.63,5.47,5.47,0,0,1,5.29,5.63"/><path id="Path_145" data-name="Path 145" class="cls-3" d="M83.26,123.46s-3.25,10.36-10,12.26c-7.61,2.13-2.1-13.16-2.1-13.16Z"/><path id="Path_146" data-name="Path 146" class="cls-3" d="M57.06,135.72s7.72-4.22,5.18-11.64-8.5-14.86-5.73-20.16a13,13,0,0,1,7.26-6.55s4.51-6.21,9.33-6.63c6.08-.53,13.11,1.81,15.61,4.2s3.48,13.48-.82,19.93c-3.06,4.58-20.29,20.85-20.29,20.85Z"/><path id="Path_147" data-name="Path 147" class="cls-3" d="M58.42,115.49s4.44,9.29-1.91,13.47a7.11,7.11,0,0,0,4.18-.33s-.62,3.94-5.91,4.84a4.52,4.52,0,0,0,5.12,1.43c3.5-1,4.21-8.92,4.25-9.41s.75-.84-.25-2.3-5.48-7.92-5.48-7.92"/><path id="Path_148" data-name="Path 148" class="cls-3" d="M67.93,340.12l20.93,7.21v3.44H58.3L59,340.12Z"/><path id="Path_149" data-name="Path 149" class="cls-11" d="M76.9,345.55a.73.73,0,0,0,.67-.49l.83-2.34a.77.77,0,0,0-.42-1,.69.69,0,0,0-.9.39l0,.05-.83,2.34a.77.77,0,0,0,.42,1,.53.53,0,0,0,.25.05"/><path id="Path_150" data-name="Path 150" class="cls-11" d="M74.26,344.67a.75.75,0,0,0,.67-.49l.83-2.35a.78.78,0,0,0-.42-1,.71.71,0,0,0-.91.4.43.43,0,0,0,0,.05l-.83,2.34a.78.78,0,0,0,.41,1,.74.74,0,0,0,.25.05"/><path id="Path_151" data-name="Path 151" class="cls-11" d="M71.62,343.79a.75.75,0,0,0,.67-.49l.83-2.35a.78.78,0,0,0-.42-1,.69.69,0,0,0-.9.4.08.08,0,0,0,0,0L71,342.76a.79.79,0,0,0,.41,1,.75.75,0,0,0,.26.05"/><path id="Path_152" data-name="Path 152" class="cls-6" d="M67.93,340.12l16.2-109.48H65.77L59,340.12Z"/><path id="Path_153" data-name="Path 153" class="cls-21" d="M63.26,271.21l16-7.67-8.36-8.61s-3.49.78-6.73,1.59Z"/><path id="Path_154" data-name="Path 154" class="cls-3" d="M128.91,340.12l20.93,7.21v3.44H119.27l.71-10.65Z"/><path id="Path_155" data-name="Path 155" class="cls-11" d="M137.87,345.55a.72.72,0,0,0,.67-.49l.83-2.34a.78.78,0,0,0-.41-1,.7.7,0,0,0-.91.39l0,.05-.83,2.34a.77.77,0,0,0,.42,1,.56.56,0,0,0,.25.05"/><path id="Path_156" data-name="Path 156" class="cls-11" d="M135.23,344.67a.74.74,0,0,0,.67-.49l.83-2.35a.78.78,0,0,0-.42-1,.69.69,0,0,0-.9.4l0,.05-.83,2.34a.78.78,0,0,0,.42,1,.7.7,0,0,0,.25.05"/><path id="Path_157" data-name="Path 157" class="cls-11" d="M132.59,343.79a.75.75,0,0,0,.67-.49l.83-2.35a.78.78,0,0,0-.42-1,.69.69,0,0,0-.9.4l0,0-.83,2.35a.78.78,0,0,0,.42,1,.7.7,0,0,0,.25.05"/><path id="Path_158" data-name="Path 158" class="cls-6" d="M128.91,340.12l-5.43-74.43-15.38,3.18L120,340.12Z"/><path id="Path_159" data-name="Path 159" class="cls-6" d="M108.11,268.87l-5.39-17.6,16.15-6.36,4.61,20.78Z"/><path id="Path_160" data-name="Path 160" class="cls-21" d="M121.49,256.75l-.11-.5c-.4-1.4-2.24-5.29-10.16-5.29a12.72,12.72,0,0,0-7.85,2.46l4.73,15.45Z"/><path id="Path_161" data-name="Path 161" class="cls-21" d="M118.74,169.66c-8.08,3.2-12.06,3.69-12.83,3.53-2.06-.45-7-6.14-11.46-15.78,0,0-7,1.9-11.62,1.92,0,0,10.63,20,16.94,24.75,4.31,3.23,15.48-4.82,21.55-7.87,6.66-3.35,4.62-12.9,4.62-12.9l-.19-.21c-6.32-6.91-9.72,1.43-9.58,2.25s2.57,4.31,2.57,4.31"/><path id="Path_162" data-name="Path 162" class="cls-22" d="M99.92,181.56l24-12.37s-1.27-2.15-1.51-2.1-12.1,2.46-13.36,3.23-8.91,6.88-9.79,7.64.68,3.6.68,3.6"/><path id="Path_163" data-name="Path 163" class="cls-22" d="M91.57,162.49c-.86.24-2.81,2.68-3.8,4.18a2.53,2.53,0,0,0-.31.83c1,1.71,2.14,3.54,3.32,5.35a5.3,5.3,0,0,0,1-.61c4.58-3.46,5.12-9.92,5.12-9.92a42.32,42.32,0,0,0-5.35.17"/><path id="Path_164" data-name="Path 164" class="cls-23" d="M79.15,137.16s6.9-4.93,12.5,7.93,9.07,14.14,9.07,14.14-7.28,7.39-16,7.62c-.34-.66-13.25-22.6-5.53-29.69"/><path id="Path_165" data-name="Path 165" class="cls-24" d="M96.17,162.82c-3-9.59-9.37-20.42-9.37-20.42l-.24-.4S84,153,84,154.81,88.38,166,88.5,166.3a25.8,25.8,0,0,0,7.67-3.47"/><path id="Path_166" data-name="Path 166" class="cls-25" d="M90.45,165.71a30.85,30.85,0,0,0,10.27-6.48,6.86,6.86,0,0,1-2.24-2,85.89,85.89,0,0,1-8.29,5.59s0,1.38.26,2.9"/><g id="Group_3" data-name="Group 3" class="cls-26"><g id="Group_2" data-name="Group 2"><g class="cls-27"><g id="Group_1" data-name="Group 1"><path id="Path_167" data-name="Path 167" class="cls-28" d="M95.1,159.7c-2.49,1.68-4.91,3.11-4.91,3.11s0,1.37.26,2.89l.15,0,.45-.17.57-.23a28,28,0,0,0,4.55-2.43c-.32-1-.68-2.08-1.07-3.12"/></g></g></g></g><path id="Path_168" data-name="Path 168" class="cls-23" d="M62.45,133.47s-10.79,3.5-16,10.12,10.11,54.64,10.11,54.64L95.7,190s-2.57-39.65-10.47-51.92c0,0-2.15-3.58-10.74-4.25a107.53,107.53,0,0,0-12-.35"/><path id="Path_169" data-name="Path 169" class="cls-3" d="M82.83,213.48l17.5,49.91,26-8.14-19-47.89Z"/><path id="Path_170" data-name="Path 170" class="cls-3" d="M84.13,237.21,98,232.55l-5.34-19.49-8.14,3.68s-2.22-4.17,0,3.59-.41,16.88-.41,16.88"/><path id="Path_171" data-name="Path 171" class="cls-29" d="M90.79,211.27,85,264l-25.91-2.13L62,219.24Z"/><path id="Path_172" data-name="Path 172" class="cls-23" d="M93.43,168.69s7.37,30,17.07,39.27c0,0-29.59,14.79-46.31,15.42s29.25-54.69,29.25-54.69"/><path id="Path_173" data-name="Path 173" class="cls-23" d="M99.92,203.65s3.48,10.75,4.61,11.72,6-2.68,6.92-4.1-6.91-17.22-11.53-24.46,2.88,16.63,2.88,16.63Z"/><path id="Path_174" data-name="Path 174" class="cls-23" d="M88.94,213.66a62.39,62.39,0,0,0,2.5,6c1.63,3.05-19.43,7.88-24.48,7s7.72-10.15,9.3-10.59,12.68-2.42,12.68-2.42"/><path id="Path_175" data-name="Path 175" class="cls-24" d="M99,201.22a15,15,0,0,0,3.24-6.38L99,193l-2.53,1.06Z"/><path id="Path_176" data-name="Path 176" class="cls-24" d="M84.41,200c-1.91,1.5-4.89,3.79-8.49,6.48-6.41,4.77-5.42,8.26-5.42,8.26s-3,9.49-1,12c3.14-.78,9.57-3.25,13.14-8.18a20.24,20.24,0,0,1,5.16-8.39Z"/><path id="Path_177" data-name="Path 177" class="cls-11" d="M102.8,211.55,74.49,133.82l-12-.35L90,216.84c4.81-1.82,9.28-3.71,12.81-5.29"/><path id="Path_178" data-name="Path 178" class="cls-30" d="M87.79,210.17a22.41,22.41,0,0,1,5.29-4.1,20,20,0,0,0,6-4.85l-2.61-7.14-9.67,4s-.85.68-2.35,1.85Z"/><path id="Path_179" data-name="Path 179" class="cls-24" d="M51.69,181.62c2.57.6,5.5,1.22,6.55,1.49,2,.52,15.29,3,7.81-6.14s-7.64-27.53-7.64-27.53-8.81,17.39-10,19.14h0c1,4.43,2.18,8.93,3.3,13"/><path id="Path_180" data-name="Path 180" class="cls-6" d="M66.29,121.3a114.55,114.55,0,0,1-3.84,12.17s2.89,10.93,10.45,11,1.58-10.61,1.58-10.61L76,129.6l-1.83-6.25Z"/><path id="Path_181" data-name="Path 181" class="cls-21" d="M76,129.6l-1.49,4.22c-7.23-4.27-8.19-12.52-8.19-12.52l7.85,2Z"/><path id="Path_182" data-name="Path 182" class="cls-6" d="M66.29,121.3a4.59,4.59,0,0,1-4.05-4.64c-.12-4.26,3.12-4.22,4.49-2.12a9.84,9.84,0,0,1,1.15,2.64l1.77-.37s-.25-7.25,2.08-9.36,11.76-2.94,13.73-2.39c2.17.6,4.49,17.94-.55,23.23s-15.48-.62-18.62-7"/><path id="Path_183" data-name="Path 183" class="cls-21" d="M65.64,115.94s-.54-.77-1.21-.58-1.46,3.14,1.73,4.18c0,0-1.65-1.63-1.48-2.76s1-.84,1-.84"/><path id="Path_184" data-name="Path 184" class="cls-7" d="M81.84,113.9a44.23,44.23,0,0,1,2.63,4.71c.38,1.12-2.63.94-2.63.94Z"/><path id="Path_185" data-name="Path 185" class="cls-11" d="M85,122.05H78s3.91,7.1,7.08,0"/><path id="Path_186" data-name="Path 186" class="cls-3" d="M77.72,114.59a.65.65,0,0,1-.61-.69.63.63,0,0,1,.45-.58.83.83,0,0,0-.62-.32c-.62,0-1.13.88-1.13,2s.5,2,1.13,2,1.13-.88,1.13-2a2.77,2.77,0,0,0,0-.49.51.51,0,0,1-.31.11"/><path id="Path_187" data-name="Path 187" class="cls-3" d="M78.9,112.05l.07-1.18-4.18-.36-.06,1.17Z"/><path id="Path_188" data-name="Path 188" class="cls-3" d="M86.13,114.16a.65.65,0,0,1-.16-1.27.84.84,0,0,0-.62-.32c-.63,0-1.13.88-1.13,2s.5,2,1.13,2,1.13-.88,1.13-2a2.77,2.77,0,0,0,0-.49.51.51,0,0,1-.31.11"/><path id="Path_189" data-name="Path 189" class="cls-3" d="M86.84,110.5l-.36-1.11-3.31,1.13.36,1.11Z"/><path id="Path_190" data-name="Path 190" class="cls-29" d="M153,144.31l-4.08-4.9L134,149.64a4.64,4.64,0,0,1-2.8,3.83l1.7,3.14,1.7,3.13a4.27,4.27,0,0,1,4.52-.66l15.82-8.57Zm-15.62,8.18a1.27,1.27,0,0,1-1.76-.44.22.22,0,0,1,0-.08A1.46,1.46,0,0,1,136,150l11.09-6.78a1.27,1.27,0,0,1,1.76.43l0,.08a1.46,1.46,0,0,1-.49,1.93Zm2.42,4.45a1.27,1.27,0,0,1-1.76-.43.35.35,0,0,1-.05-.08,1.46,1.46,0,0,1,.48-1.93l11.1-6.79a1.28,1.28,0,0,1,1.76.44.56.56,0,0,1,.05.08,1.47,1.47,0,0,1-.49,1.93Z"/><path id="Path_280" data-name="Path 280" class="cls-31" d="M142,156.94l.68-.42,1.27,2.34-.67.42Z"/><path id="Path_281" data-name="Path 281" class="cls-31" d="M145.71,154.68l.68-.41,1.27,2.34L147,157Z"/><path id="Path_282" data-name="Path 282" class="cls-31" d="M149.39,152.43l.68-.41,1.27,2.34-.67.41Z"/><path id="Path_191" data-name="Path 191" class="cls-29" d="M142.53,160.07h0a1.07,1.07,0,0,0,1.44.47l.07,0,.56-.34a1.22,1.22,0,0,0,.41-1.61,1.07,1.07,0,0,0-1.44-.47l-.07,0-.56.34a1.21,1.21,0,0,0-.41,1.61"/><path id="Path_192" data-name="Path 192" class="cls-29" d="M149.89,155.56h0a1.07,1.07,0,0,0,1.44.47l.07,0,.57-.34a1.22,1.22,0,0,0,.4-1.61,1.07,1.07,0,0,0-1.44-.47l-.07,0-.56.34a1.22,1.22,0,0,0-.41,1.61"/><path id="Path_193" data-name="Path 193" class="cls-29" d="M146.21,157.81h0a1.07,1.07,0,0,0,1.44.47l.07,0,.56-.34a1.21,1.21,0,0,0,.41-1.61,1.08,1.08,0,0,0-1.44-.47l-.07,0-.56.34a1.22,1.22,0,0,0-.41,1.61"/><path id="Path_283" data-name="Path 283" class="cls-31" d="M135.88,145.61l.68-.42,1.27,2.34-.68.42Z"/><path id="Path_284" data-name="Path 284" class="cls-31" d="M139.56,143.35l.68-.41,1.27,2.34-.67.41Z"/><path id="Path_285" data-name="Path 285" class="cls-31" d="M143.24,141.1l.68-.41,1.27,2.34-.67.41Z"/><path id="Path_194" data-name="Path 194" class="cls-29" d="M134.85,145.92h0a1.2,1.2,0,0,1,.41-1.6l.56-.35a1.08,1.08,0,0,1,1.47.36l0,.07a1.22,1.22,0,0,1-.4,1.61l-.57.35a1.08,1.08,0,0,1-1.47-.37.43.43,0,0,1,0-.07"/><path id="Path_195" data-name="Path 195" class="cls-29" d="M142.21,141.42h0a1.22,1.22,0,0,1,.41-1.61l.56-.34a1.07,1.07,0,0,1,1.48.36l0,.07a1.22,1.22,0,0,1-.4,1.61l-.56.34a1.08,1.08,0,0,1-1.48-.36.43.43,0,0,0,0-.07"/><path id="Path_196" data-name="Path 196" class="cls-29" d="M138.53,143.67h0a1.22,1.22,0,0,1,.41-1.61l.56-.34a1.06,1.06,0,0,1,1.47.36.25.25,0,0,1,0,.07,1.22,1.22,0,0,1-.4,1.61l-.56.34a1.07,1.07,0,0,1-1.48-.36l0-.07"/><path id="Path_197" data-name="Path 197" class="cls-16" d="M80.92,212.18c2.64-8.57,6.91-5.24,16.86-11.53s1.79-19.72,1.79-19.72l-1.62-3-1.63-3s-6.85-14.23-17-8.24-9.54,11.58-17.84,9.72S38.06,179.14,35.12,190s4.68,23.55,4.68,23.55,6.55,13.38,16.85,16.11,21.62-8.89,24.26-17.45"/><g id="Group_6" data-name="Group 6" class="cls-26"><g id="Group_5" data-name="Group 5"><g class="cls-32"><g id="Group_4" data-name="Group 4"><path id="Path_198" data-name="Path 198" class="cls-16" d="M99.57,180.93l-1.19-2.21c1.77,3.63,5.42,13.24-2.55,18.28-10,6.29-14.22,3-16.87,11.53S65,228.72,54.69,226c-8.16-2.17-14-11-16-14.6.66,1.35,1.14,2.13,1.14,2.13s6.54,13.38,16.83,16.11,21.62-8.88,24.27-17.45,6.92-5.24,16.87-11.53,1.79-19.72,1.79-19.72"/></g></g></g></g><path id="Path_199" data-name="Path 199" class="cls-33" d="M99,179.84l-.74-1.38.15.29Z"/><path id="Path_200" data-name="Path 200" class="cls-33" d="M99.92,181.56l-.18-.34Z"/><path id="Path_201" data-name="Path 201" class="cls-33" d="M83.26,197.67a8.49,8.49,0,0,1-11.67-2.86c-.11-.18-.21-.37-.31-.55a9.64,9.64,0,0,1,3.22-12.72,8.5,8.5,0,0,1,11.67,2.86c.11.18.21.37.31.56a9.63,9.63,0,0,1-3.22,12.71"/><path id="Path_202" data-name="Path 202" class="cls-29" d="M82,192.78l-4.15-7.63,53.3-31.72,3.4,6.27Z"/><path id="Path_203" data-name="Path 203" class="cls-34" d="M82.2,195.72a6.45,6.45,0,0,1-8.85-2.17c-.08-.14-.16-.28-.23-.42a7.31,7.31,0,0,1,2.44-9.64,6.44,6.44,0,0,1,8.84,2.17,4.49,4.49,0,0,1,.24.42,7.3,7.3,0,0,1-2.44,9.64"/><path id="Path_204" data-name="Path 204" class="cls-29" d="M59.41,211.12l-7.83-14.41a3.11,3.11,0,0,1,1.05-4.11,2.74,2.74,0,0,1,3.77.93,1,1,0,0,1,.1.17l7.82,14.42a3.11,3.11,0,0,1-1,4.11,2.74,2.74,0,0,1-3.77-.93l-.1-.17"/><path id="Path_205" data-name="Path 205" class="cls-35" d="M60.83,206.17l-4.49-8.28a.45.45,0,0,1,.15-.59.38.38,0,0,1,.54.13l0,0,4.49,8.27a.45.45,0,0,1-.15.6.4.4,0,0,1-.54-.13l0,0"/><path id="Path_206" data-name="Path 206" class="cls-35" d="M61.07,211.05l-8.6-15.83a.45.45,0,0,1,.16-.59.39.39,0,0,1,.54.13l0,0,8.59,15.83a.46.46,0,0,1-.15.59.4.4,0,0,1-.55-.13v0"/><path id="Path_207" data-name="Path 207" class="cls-35" d="M56.63,200l81.64-50-.12-.22-81.64,50Z"/><path id="Path_286" data-name="Path 286" class="cls-35" d="M57.06,200.77l85.66-52.43.12.22L57.18,201Z"/><path id="Path_208" data-name="Path 208" class="cls-35" d="M57.74,202l88.14-53.95-.16-.19-88.1,53.92Z"/><path id="Path_209" data-name="Path 209" class="cls-35" d="M145.66,148l.3-2.48.24,0-.32,2.54Z"/><path id="Path_210" data-name="Path 210" class="cls-35" d="M146.3,149.14l2.17,1,.09-.23-2.29-1Z"/><path id="Path_287" data-name="Path 287" class="cls-35" d="M58.17,202.81l88.1-53.92.12.22L58.29,203Z"/><path id="Path_288" data-name="Path 288" class="cls-35" d="M58.72,203.83l85.63-52.39.12.22L58.84,204.05Z"/><path id="Path_211" data-name="Path 211" class="cls-35" d="M59.4,205.08l82-50.18-.12-.22-82,50.18Z"/><path id="Path_212" data-name="Path 212" class="cls-31" d="M148,149.05a1.08,1.08,0,0,0-.36,1.43,1,1,0,0,0,1.28.42l.06,0a1.08,1.08,0,0,0,.37-1.43,1,1,0,0,0-1.29-.41l-.06,0"/><path id="Path_213" data-name="Path 213" class="cls-31" d="M144.33,151.3a1.07,1.07,0,0,0-.36,1.43,1,1,0,0,0,1.28.42l.06,0a1.07,1.07,0,0,0,.36-1.43,1,1,0,0,0-1.28-.42l-.06,0"/><path id="Path_214" data-name="Path 214" class="cls-31" d="M140.65,153.56a1.07,1.07,0,0,0-.36,1.43,1,1,0,0,0,1.28.41l.06,0a1.07,1.07,0,0,0,.36-1.43,1,1,0,0,0-1.28-.42l-.06,0"/><path id="Path_215" data-name="Path 215" class="cls-31" d="M146.58,146.41a1,1,0,0,1-1.32-.32l0-.07a1.07,1.07,0,0,1,.36-1.42,1,1,0,0,1,1.31.32l0,.06a1.09,1.09,0,0,1-.36,1.43"/><path id="Path_216" data-name="Path 216" class="cls-31" d="M142.89,148.66a1,1,0,0,1-1.31-.32l0-.06a1.08,1.08,0,0,1,.36-1.43,1,1,0,0,1,1.31.32l0,.06a1.09,1.09,0,0,1-.37,1.43"/><path id="Path_217" data-name="Path 217" class="cls-31" d="M139.21,150.91a1,1,0,0,1-1.31-.32l0-.06a1.07,1.07,0,0,1,.36-1.43,1,1,0,0,1,1.31.32l0,.06a1.07,1.07,0,0,1-.36,1.43"/><g id="Group_9" data-name="Group 9" class="cls-26"><g id="Group_8" data-name="Group 8"><g class="cls-36"><g id="Group_7" data-name="Group 7"><path id="Path_218" data-name="Path 218" class="cls-16" d="M71.73,191.61c-1.16-.09-5.33.78-8.11.56s-6.3-.36-7.57-.64-3.36-3-4.16-4.6-1.64-5.67-3-8.48a2.65,2.65,0,0,0-.58-.78,25,25,0,0,0-7.85,4.4c-.19,3.53-.27,10.44,1.49,14.47,2.13,4.87,5.23,5.16,6,5.16h.17c11.65-.64,35.68-7.82,35.68-7.82s-10.84-2.18-12-2.27"/></g></g></g></g><path id="Path_219" data-name="Path 219" class="cls-6" d="M84.61,187.57c-3.73-2.35-9.43,0-9.43,0s2.52-1.35,2.16-2.32-3-.36-4.44,1.56,1.09,1.09-10.13,1.43c-9.56.29-8.64-1.3-8.64-1.3A93.89,93.89,0,0,1,54,167.85s-6.92-2.24-10.87-4.76c0,0-2.23,23.65.85,31.17,4.15,6.83,25.87,1.43,25.87,1.43s7.28-2.46,11.79-1.59c3.57.69,6.74-4.17,3-6.53"/><path id="Path_220" data-name="Path 220" class="cls-21" d="M42.85,172.29l0-2.77a27.13,27.13,0,0,0,6.24,0,9.49,9.49,0,0,1,4.66.57c-.2,3.09-.26,6.15-.21,9a22.38,22.38,0,0,1-10.73-6.73Z"/><path id="Path_221" data-name="Path 221" class="cls-23" d="M51.43,139.19s8.31-.41,6.81,13.67-.37,20.59-.37,20.59-9.83,2.3-17.44-2.33c0-.75.94-30.13,11-31.93"/><path id="Path_222" data-name="Path 222" class="cls-21" d="M118.74,169.66s-2.76-3.63-2.33-4.72,1.34-.32,2.16.83,1.07.52.81-.2.65-1.23,1-1.33,1.86,1,1.31-.27c-.36-.85.66-1.62,1.18-1.2s.87,1,1.46.94-3.14-3.35-2-4.5,3.62,1.54,4.91,5.25-7.55,7.31-8.49,5.2"/><path id="Path_223" data-name="Path 223" class="cls-6" d="M126.71,163.16c-1.38-3-3.49-4.84-4.39-3.95a.67.67,0,0,0-.2.38c.76,1.16,1.87,2.27,1.52,2.31a1,1,0,0,1-.73-.27c.75,1.07,1.69,2,1.37,2.08-.59.06-.94-.52-1.46-.94s-1.54.35-1.18,1.19c.55,1.31-1,.18-1.31.28s-1.22.61-1,1.33,0,1.35-.81.2-1.72-1.93-2.16-.84a.75.75,0,0,0,0,.26,24.3,24.3,0,0,0,1.74,2.66c.9,2,9-1.17,8.6-4.69"/><path id="Path_224" data-name="Path 224" class="cls-21" d="M119.3,160.48A7.18,7.18,0,0,1,121,158c.83-.54,1.47.52,1.42.69q-1.5,1-3.09,1.83"/><path id="Path_225" data-name="Path 225" class="cls-25" d="M57.55,170c-7.08.6-14.63-1.19-17-1.82-.11,1.68-.15,2.76-.15,2.9,7.6,4.63,17.44,2.33,17.44,2.33a32.5,32.5,0,0,1-.32-3.41"/><path id="Path_226" data-name="Path 226" class="cls-7" d="M309.38,100.41a44.45,44.45,0,0,1,2.26,4.91c.3,1.15-2.68.72-2.68.72Z"/><path id="Path_227" data-name="Path 227" class="cls-3" d="M305.21,100.75a.65.65,0,0,1-.06-1.28.86.86,0,0,0-.6-.37c-.62-.06-1.19.79-1.27,1.88s.36,2,1,2.07,1.2-.79,1.28-1.88a4.17,4.17,0,0,0,0-.5.54.54,0,0,1-.33.08"/><path id="Path_228" data-name="Path 228" class="cls-3" d="M306.58,98.32l.15-1.17-4.14-.71-.15,1.16Z"/><path id="Path_229" data-name="Path 229" class="cls-3" d="M313.63,101a.65.65,0,0,1-.57-.7.64.64,0,0,1,.5-.58.85.85,0,0,0-.59-.38c-.62-.05-1.2.79-1.28,1.88s.36,2,1,2.07,1.19-.79,1.27-1.88a4,4,0,0,0,0-.49.51.51,0,0,1-.32.08"/><path id="Path_230" data-name="Path 230" class="cls-3" d="M314.65,97.58l-.27-1.14-3.39.85.28,1.14Z"/><path id="Path_231" data-name="Path 231" class="cls-6" d="M350.9,73.1c0-.06,1.19-3,2-3.23S359,73,359.8,73.25s-.39,4-1.22,4.75-8.56-3.22-7.68-4.9"/><path id="Path_232" data-name="Path 232" class="cls-6" d="M348.34,75.91s-.4-2.24.48-3,2.79,3,2.79,3l-2.19.39Z"/><path id="Path_233" data-name="Path 233" class="cls-31" d="M561.83,104.92a40.47,40.47,0,0,1,6.36,28.41s15.75,19.26,3.09,39.16c-10.06,15.82-40.06,17.69-46.23.24s-3.84-34.36,1.73-45.1,35.05-22.71,35.05-22.71"/><path id="Path_234" data-name="Path 234" class="cls-3" d="M539.36,237.32l-8.74-.71,1.66-15.74,8.66,1.5s1.42-3.53.67,2.74a109.72,109.72,0,0,1-2.25,12.21"/><path id="Path_235" data-name="Path 235" class="cls-3" d="M516.88,213.62l-14.75,52.06-5.43,74.44h8.92l13.1-71.25,23.79-52.6Z"/><path id="Path_236" data-name="Path 236" class="cls-29" d="M566.59,340.12l-5.36-62.61-2.55-61.6-27.06-1,26,125.23Z"/><path id="Path_237" data-name="Path 237" class="cls-3" d="M557.67,340.12l-20.93,7.21v3.44H567.3l-.71-10.65Z"/><path id="Path_238" data-name="Path 238" class="cls-11" d="M548.7,345.55a.71.71,0,0,1-.66-.49l-.83-2.34a.76.76,0,0,1,.41-1,.7.7,0,0,1,.91.39s0,0,0,.05l.84,2.34a.77.77,0,0,1-.42,1,.74.74,0,0,1-.25.05"/><path id="Path_239" data-name="Path 239" class="cls-11" d="M551.35,344.67a.73.73,0,0,1-.67-.49l-.83-2.35a.78.78,0,0,1,.41-1,.71.71,0,0,1,.91.4l0,.05.83,2.34a.78.78,0,0,1-.42,1,.7.7,0,0,1-.25.05"/><path id="Path_240" data-name="Path 240" class="cls-11" d="M554,343.79a.74.74,0,0,1-.67-.49l-.83-2.35a.79.79,0,0,1,.41-1,.71.71,0,0,1,.91.4s0,0,0,0l.83,2.35a.78.78,0,0,1-.42,1,.7.7,0,0,1-.25.05"/><path id="Path_241" data-name="Path 241" class="cls-3" d="M496.7,340.12l-20.93,7.21v3.44h30.56l-.71-10.65Z"/><path id="Path_242" data-name="Path 242" class="cls-11" d="M487.73,345.55a.73.73,0,0,1-.67-.49l-.83-2.34a.77.77,0,0,1,.42-1,.69.69,0,0,1,.9.39l0,.05.83,2.34a.77.77,0,0,1-.42,1,.53.53,0,0,1-.25.05"/><path id="Path_243" data-name="Path 243" class="cls-11" d="M490.37,344.67a.75.75,0,0,1-.67-.49l-.83-2.35a.78.78,0,0,1,.42-1,.71.71,0,0,1,.91.4s0,0,0,.05l.83,2.34a.78.78,0,0,1-.41,1,.74.74,0,0,1-.25.05"/><path id="Path_244" data-name="Path 244" class="cls-11" d="M493,343.79a.75.75,0,0,1-.67-.49l-.83-2.35a.78.78,0,0,1,.42-1,.71.71,0,0,1,.91.4s0,0,0,0l.84,2.35a.78.78,0,0,1-.42,1,.74.74,0,0,1-.25.05"/><path id="Path_245" data-name="Path 245" class="cls-6" d="M557.67,340.12h8.92l-1-11.76H555.22Z"/><path id="Path_246" data-name="Path 246" class="cls-21" d="M565.59,328.36l-9.08,6.17-1.29-6.17Z"/><path id="Path_247" data-name="Path 247" class="cls-6" d="M507.78,328.36H497.56l-.86,11.76h8.92Z"/><path id="Path_248" data-name="Path 248" class="cls-21" d="M507.78,328.36l-10.66,5.88.43-5.88Z"/><path id="Path_249" data-name="Path 249" class="cls-3" d="M505.6,154.27l-1.86,2.59.73.76,2.18-2.32Z"/><path id="Path_250" data-name="Path 250" class="cls-37" d="M531.94,102.3s-7.57,1.55-5.32,14.46c2.32,13.35-3.07,15.32-.77,17.53,1.72,1.65,10.91,4.49,18.63-1.25s-12.54-30.74-12.54-30.74"/><path id="Path_251" data-name="Path 251" class="cls-37" d="M526.78,127.63c-5.57,10.74-7.9,27.65-1.73,45.1a16.83,16.83,0,0,0,1.32,2.86l11.77-.8L539,161l1-29.54s5.74-2.42,4.25-4c-.94-1-8.21-3.17-13.46-4.66a19.16,19.16,0,0,0-3.93,4.85"/><path id="Path_252" data-name="Path 252" class="cls-6" d="M522.94,135.33s-23.1-8.87-25.16-9.88-19.85-9-19.85-9L474.12,123s19.43,11.12,20.13,11.45c6.73,3.21,24.49,9.73,24.49,9.73Z"/><path id="Path_253" data-name="Path 253" class="cls-21" d="M510.13,130.38s-3.5,1.91-6.93,7.82c2.71,1.08,5.52,2.17,8,3.11a18.19,18.19,0,0,0,3.5-4.54,16.91,16.91,0,0,0,.9-4.28l-5.46-2.11"/><path id="Path_254" data-name="Path 254" class="cls-38" d="M534.55,135.93s-22.16-6.79-23.12-7.32c-4.61,5.11-3.82,14.6-3.82,14.6l23.78,9.46Z"/><path id="Path_255" data-name="Path 255" class="cls-39" d="M515.07,146.18l12,4.79,1.12-4.92-11.86-1.37Z"/><path id="Path_256" data-name="Path 256" class="cls-6" d="M476.25,114.28s-6.43-7.8-7.13-7.8-1.81.46-.91,2.19c.11.22,4.21,5.61,4.21,5.61s-.68-2.49-1.52-1.92a21.83,21.83,0,0,0-3.86,5.37c-.22.84,7.08,5.22,7.08,5.22l4.51-6.12s.17-4.07.11-4.9-1.16-.86-1.88-.79-.61,3.14-.61,3.14"/><path id="Path_257" data-name="Path 257" class="cls-40" d="M553.47,141.53l-30.41,21.13s4,11.32,4.46,11.74-1.89,3.62,3.46,1.08,16.62-12.39,18.77-14.55,5.16-10.25,5.11-11.19-1.39-8.21-1.39-8.21"/><path id="Path_258" data-name="Path 258" class="cls-38" d="M560.67,139.37c-6.1-5.7-11-6.68-11-6.68A106.16,106.16,0,0,0,537.87,135c-8.4,2.06-10,6-10,6-6,8.09-1.58,15.29-3.71,31.58,0,0-7.2,34.14-14.61,49.18a3.91,3.91,0,0,0,2.64,5.61c11,2,36.31,6.16,49.08,4.56,7.38-.92,5.52-86.79-.59-92.5"/><path id="Path_259" data-name="Path 259" class="cls-11" d="M537.13,146.69c4.1,2.31,9.14-.78,12.26-5.89a18.18,18.18,0,0,0,2.55-7.35,12.65,12.65,0,0,0-2.22-.76A105.89,105.89,0,0,0,537.87,135c-.67.17-1.29.35-1.89.54,0,.08-2.92,8.87,1.15,11.17"/><path id="Path_260" data-name="Path 260" class="cls-39" d="M520.48,188.14c8-1.45,23.26-9.1,31.68-17a33.31,33.31,0,0,0,10.21-23.7s-2.58-1.31-3.76-.17-5.35,5.73-6.93,7.83-9.53,13.06-11.23,14.92-13.14,3.45-15.17-.1a2.81,2.81,0,0,0-.76-.85c-.09,1.1-.21,2.25-.37,3.46,0,0-1.43,6.78-3.67,15.63"/><path id="Path_261" data-name="Path 261" class="cls-6" d="M544.17,121.28a112.23,112.23,0,0,0,5.55,11.41S548.43,144,541,145.21,537.87,135,537.87,135l-.27-6.37-.9-4Z"/><path id="Path_262" data-name="Path 262" class="cls-21" d="M544.78,122.7l-.8-.36s-.7-.11-1.68-.23l-5.59,2.46.89,4,.07,1.76c.59.47,4.88,3.67,12,2.79a4.56,4.56,0,0,0,.06-.47,102.69,102.69,0,0,1-4.93-10"/><path id="Path_263" data-name="Path 263" class="cls-6" d="M551.53,121.32a4.6,4.6,0,0,0,4.07-4.63c.13-4.26-3.1-4.23-4.48-2.13A9.31,9.31,0,0,0,550,117.2l-1.78-.38s.28-7.25-2-9.37-11.74-3-13.72-2.45c-2.18.6-4.56,17.92.46,23.24s15.48-.56,18.65-6.92"/><path id="Path_264" data-name="Path 264" class="cls-29" d="M504.76,153.84l12.1-17,4.53,4-14.2,15.37Z"/><path id="Path_265" data-name="Path 265" class="cls-29" d="M524.41,138.52a4.88,4.88,0,0,1-4.94,4.84h0a5,5,0,0,1-4.56-5.27,4.88,4.88,0,0,1,4.93-4.84h0a5,5,0,0,1,4.56,5.27"/><path id="Path_266" data-name="Path 266" class="cls-3" d="M524.19,136.83a4.68,4.68,0,0,1-9.19.41,4.82,4.82,0,0,0-.11.85,4.94,4.94,0,0,0,4.56,5.27,4.88,4.88,0,0,0,5-4.81v0a5.1,5.1,0,0,0-.22-1.69"/><path id="Path_267" data-name="Path 267" class="cls-6" d="M518.94,150.44c-.32,2.45-1.46-.32,4.7,9.65,5.24,8.49,5.94,6.78,5.94,6.78a83.68,83.68,0,0,0,14.86-10.78s5.68,4.75,9.89,6.75c0,0-17,15.47-24.57,17.09-7.65.28-15.89-21.73-15.89-21.73s-3.5-6.81-5.51-11.18c-.84-1.8,2.51-5.54,4.84-5l3.09,4.28,1.33-1.42s1.87,1.41,1.32,5.57"/><path id="Path_268" data-name="Path 268" class="cls-21" d="M551.93,163.11s-1.18-1.6-2.54-3.25c-2-1.41-3.76-2.8-4.53-3.42A22.87,22.87,0,0,0,541,159l-.93.75-.16.13s.32,7.39,3.19,12.26c3.12-2.37,6-4.8,8.13-6.59.45-1.43.71-2.46.71-2.46"/><path id="Path_269" data-name="Path 269" class="cls-38" d="M561.63,142.76s-3.93-6.46-14,2.9-9.8,10.23-9.8,10.23,3.84,9.88,11.77,13.86c.56-.46,16.35-17.19,12-27"/><path id="Path_270" data-name="Path 270" class="cls-31" d="M531.94,102.3s-.73-10.64,15.37-8.2C561.17,96.2,565,112.79,565,112.79l-1.57,10.53-8.13,10.19s-8.66,2.69-10.67-7.78c-1.07-5.6,1.08-8.28-1.61-12.85-2.06-3.51-12.1-2.09-11.11-10.58"/><path id="Path_271" data-name="Path 271" class="cls-7" d="M535.54,115.14a38.8,38.8,0,0,0-2.39,4.15c-.36,1,2.32.87,2.32.87Z"/><path id="Path_272" data-name="Path 272" class="cls-11" d="M532.6,122.34l6.3.11s-3.58,6.26-6.3-.11"/><path id="Path_273" data-name="Path 273" class="cls-3" d="M539.2,115.82a.59.59,0,0,0,.56-.6.57.57,0,0,0-.4-.53.76.76,0,0,1,.56-.28c.55,0,1,.8,1,1.78s-.48,1.75-1,1.75-1-.81-1-1.79c0-.14,0-.29,0-.43a.59.59,0,0,0,.28.1"/><path id="Path_274" data-name="Path 274" class="cls-3" d="M538.18,113.54l0-1.05,3.72-.26,0,1Z"/><path id="Path_275" data-name="Path 275" class="cls-3" d="M531.73,115.31a.58.58,0,0,0,.55-.6.57.57,0,0,0-.4-.53.76.76,0,0,1,.56-.28c.56,0,1,.8,1,1.78s-.48,1.75-1,1.74-1-.8-1-1.78a2.09,2.09,0,0,1,0-.43.56.56,0,0,0,.28.1"/><path id="Path_276" data-name="Path 276" class="cls-3" d="M531.1,112.16l.33-1,2.93,1.06-.33,1Z"/><path id="Path_277" data-name="Path 277" class="cls-3" d="M539.92,114.41l2-.07-1.23.94,1.1-.09-1.38,1.07Z"/><path id="Path_278" data-name="Path 278" class="cls-3" d="M532.47,113.94l2-.06-1.23.93,1.11-.08L533,115.79Z"/><path id="Path_279" data-name="Path 279" class="cls-21" d="M474.49,116l-3.64,4.9.9.59,3.78-4.64Z"/><rect id="Rectangle_52" data-name="Rectangle 52" class="cls-1" x="5.86" y="9.89" width="594.21" height="383.75"/></g></svg>